<svg width="171" height="88" viewBox="0 0 171 88" fill="none" xmlns="http://www.w3.org/2000/svg">
<path d="M95.8096 86.5C92.2994 84.778 81.7974 79.2769 78.1589 77.8531C72.953 75.816 50.1801 69.1345 44.8096 67.5" stroke="#FF5000" stroke-width="2" stroke-linecap="round"/>
<path d="M44.6765 67.3056C43.1417 65.9243 41.5942 64.6716 40.1549 63.2322C39.5689 62.6463 39.1317 61.92 38.5762 61.3027C38.0813 60.7528 37.4383 59.3912 36.8611 59.0614C36.1651 58.6637 35.7925 57.3492 35.2824 56.6934C34.7841 56.0528 34.3775 55.3828 33.7135 54.8516C32.5226 53.8989 31.1413 52.4405 30.293 51.168" stroke="#FF5000" stroke-width="2" stroke-linecap="round"/>
<path d="M29.7673 50.9917C29.7673 49.4242 28.4507 48.4816 27.7501 47.2204C27.0165 45.9 25.9813 44.8999 25.0312 43.7122C24.5707 43.1367 24.0206 42.6244 23.589 42.0848C23.2551 41.6676 22.6398 40.7656 22.2247 40.5062C21.1623 39.8422 21.0337 37.5037 19.9443 36.959" stroke="#FF5000" stroke-width="2" stroke-linecap="round"/>
<path d="M19.593 36.0824C18.9974 35.4124 18.9342 34.6012 18.3651 33.8897C17.9383 33.3562 17.3915 32.4619 16.8741 32.0479C16.5199 31.7646 15.6128 30.3768 15.5585 29.943C15.5167 29.6084 14.3426 27.581 14.1553 27.4873" stroke="#FF5000" stroke-width="2" stroke-linecap="round"/>
<path d="M14.1562 27.4876C14.1043 27.0725 13.4011 26.7304 13.2889 26.3377C13.1596 25.8853 12.7642 25.1406 12.441 24.8175C11.8902 24.2666 11.2445 23.1226 10.8624 22.4007C9.95223 20.6816 8.53575 19.2287 7.66602 17.4893" stroke="#FF5000" stroke-width="2" stroke-linecap="round"/>
<path d="M7.8405 18.0154C6.26721 16.2454 5.88306 13.5242 4.19588 11.837C3.75829 11.3995 2.7893 9.67589 2.75363 9.06948C2.69695 8.10592 2.13152 6.77281 1.70117 5.91211" stroke="#FF5000" stroke-width="2" stroke-linecap="round"/>
<path d="M1 5.73633C1.31522 5.80638 1.45937 6.18081 1.7796 6.2723C2.01542 6.33968 2.32944 6.46362 2.57868 6.5744C3.09298 6.80297 3.70698 7.02977 4.24507 7.14935C5.76358 7.48679 7.07359 8.34435 8.44515 9.03013C10.4107 10.0129 12.255 11.0276 14.068 12.2362C15.8738 13.4401 17.4331 14.9956 19.4375 15.9978C23.3919 17.975 26.9334 20.9144 30.7416 23.1993C35.2254 25.8895 39.8315 28.3554 44.3359 31.005C46.9059 32.5168 49.4765 34.11 52.0052 35.7021C55.1321 37.6709 58.6746 39.1439 61.9645 40.8182C66.0391 42.8919 69.8201 45.5825 73.8046 47.8346C75.8442 48.9874 77.9411 49.9491 80.1096 50.8165" stroke="#FF5000" stroke-width="2" stroke-linecap="round"/>
<path d="M8.89355 9.41992C9.34999 9.87636 10.1354 10.3713 10.7451 10.4821C11.6281 10.6427 12.3952 11.4267 13.2788 11.5248C14.7019 11.683 16.1557 12.7976 17.5763 13.1133C19.0122 13.4323 20.3048 14.5803 21.7764 14.8479C22.9743 15.0657 24.3609 15.9902 25.499 16.4753C28.7839 17.8754 32.2579 18.8578 35.4778 20.383C37.1218 21.1617 38.9411 21.6647 40.6427 22.3028C44.0533 23.5818 47.3254 25.1918 50.68 26.6295C53.0322 27.6376 55.5881 28.4697 57.8328 29.592" stroke="#FF5000" stroke-width="2" stroke-linecap="round"/>
<path d="M52.0439 34.8547C52.8727 34.7626 53.1299 34.1975 53.6616 33.6658C53.9251 33.4023 54.4884 32.6196 54.8505 32.5744C55.2777 32.521 56.2971 31.8381 56.6436 31.5609C57.0715 31.2186 57.6412 31.0155 58.0079 30.5572C58.3108 30.1785 59.06 29.4979 59.5086 29.2416C60.1497 28.8752 60.7329 28.0495 61.4381 27.8481C62.5355 27.5345 63.3125 26.2385 64.3226 25.7334" stroke="#FF5000" stroke-width="2" stroke-linecap="round"/>
<path d="M64.3232 25.5581C65.4595 24.4218 66.7101 23.6594 67.8704 22.6151C68.9241 21.6668 70.4609 20.9557 71.3396 19.8573C71.8665 19.1987 72.9433 18.8871 73.542 18.2883C74.0081 17.8222 74.5961 17.5846 75.0232 17.0507C75.9238 15.925 77.7327 15.0523 78.356 13.8057" stroke="#FF5000" stroke-width="2" stroke-linecap="round"/>
<path d="M77.8291 13.9803C78.1598 13.9436 78.8776 13.4084 79.1447 13.2007C79.5295 12.9014 79.99 12.7077 80.3725 12.4016C80.9046 11.976 81.6357 11.4147 82.0389 10.9106C82.693 10.0931 83.9523 9.65167 84.748 9.00062C85.4614 8.41694 86.2438 7.58765 87.0283 7.13933C88.3897 6.36142 89.3803 5.12836 90.8094 4.37176C92.3206 3.57172 93.1547 1.75686 94.6684 1" stroke="#FF5000" stroke-width="2" stroke-linecap="round"/>
<path d="M95.0195 1.35156C95.9465 2.3944 96.3312 4.46459 96.7346 5.77578C97.1626 7.16676 97.9594 8.577 98.1866 10.0538C98.3442 11.0777 98.7903 12.2249 99.0637 13.182C99.2748 13.9209 99.3438 14.9247 99.6679 15.6377C99.9603 16.2809 100.089 17.1203 100.272 17.7621C100.472 18.4623 100.983 19.3934 100.983 20.1204" stroke="#FF5000" stroke-width="2" stroke-linecap="round"/>
<path d="M100.983 19.7695C100.983 20.4076 101.475 21.2499 101.773 21.7867C102.207 22.5682 102.21 23.4942 102.474 24.3399C103.059 26.211 103.644 28.0839 104.277 29.9823C105.21 32.7802 106.083 35.7604 106.606 38.6358C107.034 40.9886 107.298 43.4246 107.688 45.8081C107.878 46.9725 108.175 48.2463 108.175 49.4137" stroke="#FF5000" stroke-width="2" stroke-linecap="round"/>
<path d="M94.493 2.4043C94.2974 3.4805 93.2074 4.3168 92.9241 5.3083C92.4671 6.90767 92.1628 8.56815 91.7742 10.2003C91.1239 12.9315 90.3417 15.6574 89.6595 18.386C88.8929 21.4528 87.8634 24.5909 87.3013 27.6827C87.1073 28.7497 86.6023 29.662 86.2878 30.6842C86.1025 31.2863 86.0336 31.903 85.7616 32.4773C85.5031 33.023 85.4283 33.713 85.2353 34.2703C85.0861 34.7014 85.1172 35.1748 84.982 35.5956C84.8276 36.0758 84.5295 36.382 84.4947 36.921C84.3208 39.6167 83.4346 42.4089 82.7796 45.0288C82.4939 46.1715 82.351 47.3524 82 48.4785" stroke="#FF5000" stroke-width="2" stroke-linecap="round"/>
<path d="M81.6887 49.5889C81.6887 49.9539 81.499 50.4945 81.3379 50.8167" stroke="#FF5000" stroke-width="2" stroke-linecap="round"/>
<path d="M81.1621 51.3432C82.0197 51.2575 82.6519 50.9924 83.5496 50.9924C84.3909 50.9924 85.2323 50.9924 86.0736 50.9924C89.3548 50.9924 92.6447 50.6993 95.9355 50.6416" stroke="#FF5000" stroke-width="2" stroke-linecap="round"/>
<path d="M95.7207 50.6419C106.424 50.6419 116.936 49.4141 127.645 49.4141" stroke="#FF5000" stroke-width="2" stroke-linecap="round"/>
<path d="M127.996 49.4141C131.437 49.4141 135.039 48.6469 138.472 48.2447C144.226 47.5704 149.96 47.3796 155.73 46.9194C158.835 46.6718 161.944 46.4401 165.046 46.169C166.403 46.0505 167.944 46.0943 169.217 45.7305" stroke="#FF5000" stroke-width="2" stroke-linecap="round"/>
<path d="M169.042 46.0801C168.983 46.5581 167.898 47.7505 167.551 48.0973C166.838 48.8103 166.127 49.6036 165.534 50.4263C164.878 51.3382 163.76 52.045 162.981 52.8236C162.17 53.6342 161.252 54.6629 160.36 55.3768C160.046 55.6273 159.89 56.0304 159.648 56.3415C159.046 57.1154 158.326 57.6735 157.641 58.3587C156.304 59.6951 154.599 60.5596 153.09 61.6915" stroke="#FF5000" stroke-width="2" stroke-linecap="round"/>
<path d="M152.905 61.8672C152.411 61.929 151.954 62.5578 151.589 62.8417C150.987 63.3105 150.538 63.824 149.816 64.1573C147 65.4568 144.649 67.3109 141.874 68.6984C139.607 69.8317 137.742 71.6552 135.539 72.879C133.973 73.7492 129.376 76.5259 130.979 75.7245" stroke="#FF5000" stroke-width="2" stroke-linecap="round"/>
<path d="M130.803 75.9004C130.738 76.422 129.043 76.5265 128.62 76.8164C127.784 77.3897 126.36 77.8963 125.365 78.1807C123.582 78.6903 122.051 79.6991 120.317 80.2856C118.015 81.0642 115.901 82.1622 113.554 82.8193C110.095 83.7878 106.592 84.4074 103.088 85.1971C101.848 85.4766 100.412 85.7233 99.1511 85.7233C98.1886 85.7233 97.2219 86.0741 96.2471 86.0741" stroke="#FF5000" stroke-width="2" stroke-linecap="round"/>
<path d="M96.2473 85.7237C95.3437 85.5229 94.6654 83.8124 94.2398 83.0828C93.7187 82.1896 93.2804 81.2127 92.817 80.286C92.0552 78.7624 91.0981 77.2215 90.4685 75.6474C90.0565 74.6175 89.4959 73.8072 89.1919 72.7434C88.9098 71.7559 88.2716 70.6604 87.7302 69.8004C87.5239 69.4729 87.4615 68.8768 87.126 68.709" stroke="#FF5000" stroke-width="2" stroke-linecap="round"/>
<path d="M86.7752 68.3585C86.7752 67.0674 85.8783 65.6565 85.2842 64.5872C84.9917 64.0606 84.665 63.2093 84.5046 62.6479C84.2755 61.846 83.5441 60.9781 83.4424 60.1142C83.368 59.4818 82.8138 58.5537 82.6044 57.8729C82.3574 57.0703 82.2478 56.2401 82.0294 55.4756C81.6778 54.2451 81.1621 52.6169 81.1621 51.3438" stroke="#FF5000" stroke-width="2" stroke-linecap="round"/>
<path d="M78.0047 49.9395C76.8427 50.0847 75.5021 51.3855 74.4868 51.9567C73.143 52.7126 71.7185 53.4273 70.4621 54.3247C69.161 55.254 67.7493 55.8666 66.3887 56.683C64.2737 57.952 61.897 58.9307 59.6257 59.8988C57.8893 60.6389 56.1647 61.4081 54.3927 62.0524C50.6148 63.4262 46.6918 64.6454 42.9229 65.9017" stroke="#FF5000" stroke-width="2" stroke-linecap="round"/>
<path d="M106.597 39.5908C106.657 40.0707 109.034 39.996 109.403 40.0781C110.986 40.4298 112.63 40.4302 114.237 40.6823C117.336 41.1685 120.462 41.46 123.572 42.0076C126.928 42.5983 130.403 43.0928 133.795 43.4498C135.902 43.6716 137.942 44.2821 140.041 44.5413C141.933 44.7748 143.817 45.0659 145.713 45.2916C147.634 45.5204 149.614 45.5643 151.501 45.9933C153.705 46.4942 156.084 46.6072 158.342 46.6072" stroke="#FF5000" stroke-width="2" stroke-linecap="round"/>
</svg>
