<svg width="58" height="58" viewBox="0 0 58 58" fill="none" xmlns="http://www.w3.org/2000/svg">
<g clip-path="url(#clip0_1474_2126)">
<path d="M9.94922 26.1277C10.0367 26.1006 10.1663 26.0647 10.3256 26.0393C11.5937 25.8406 12.6728 26.6283 13.6714 27.4169C15.1243 28.5669 15.8183 29.1647 16.3023 29.6233C16.8852 30.221 18.3853 31.2599 23.8106 31.8305C27.9775 32.3259 31.2192 32.2497 35.3002 32.3985C37.2266 32.4799 39.9371 32.5762 43.4002 33.791C44.208 34.0763 44.8566 34.3528 45.281 34.5436C45.4552 34.892 45.7475 35.3733 46.2175 35.8223C47.0183 36.5881 47.8804 36.82 48.2987 36.9023C47.1575 36.9758 45.9112 37.0231 44.5756 37.0196C43.0291 37.0161 41.6236 36.9452 40.3668 36.8402C40.1243 37.1132 39.8837 37.388 39.6447 37.6637C39.6229 37.6567 36.7224 38.8417 34.3664 37.5543C34.5178 37.1824 34.6719 36.8104 34.8268 36.4376C34.8513 36.3614 28.2479 35.2674 28.0475 35.0451C28.0046 35.0591 25.302 37.5071 20.933 36.2249C20.9286 36.2205 22.6317 35.4372 22.2186 33.5126C21.0573 33.005 19.8731 32.521 18.6688 32.0616C18.6715 32.0353 14.7593 32.1517 14.6832 31.5837C14.6805 31.5837 15.1505 30.8538 14.502 29.5384C13.3809 28.4234 12.223 27.3294 11.0301 26.2564C10.6713 26.2109 10.3124 26.168 9.95184 26.1277H9.95097H9.94922Z" fill="#FF5000"/>
<path d="M35.2947 36.3886C34.619 36.3099 33.9635 36.2258 33.3263 36.1357C31.3519 35.8556 29.5604 35.5196 27.9369 35.1502C27.9325 35.1502 27.9272 35.1476 27.9229 35.1467" stroke="white" stroke-width="0.2754" stroke-miterlimit="10"/>
<path d="M40.1321 36.8266C40.21 36.831 40.2862 36.8371 40.3641 36.8424C41.3819 36.908 42.4383 36.9632 43.5402 37.0087H43.5577C44.6648 37.0542 45.8148 37.0892 47.0147 37.1172C47.0165 37.1172 47.2983 37.1198 48.2951 36.9054H48.296C49.1983 36.7164 50.6739 36.3392 53.1324 35.7405C53.1761 35.73 53.3328 35.681 53.4597 35.5384C53.7905 35.1655 53.7039 34.3752 53.4361 34.2719C53.2951 34.2177 53.1927 34.3901 52.8549 34.5161C52.525 34.6404 52.2221 34.629 52.0174 34.6001C51.6541 34.524 51.1404 34.3726 50.5899 34.0435C49.8171 33.5814 49.3392 32.988 49.0872 32.6248C51.7889 31.8135 52.7569 32.1268 53.0501 32.567C53.1332 32.6904 53.3004 33.0256 53.4964 33.0038C53.7135 32.9793 53.878 32.5172 53.8842 32.1723C53.892 31.5772 53.4518 30.9506 51.6165 29.6771C50.5015 28.9122 49.9335 28.5385 48.8465 28.0204C45.596 26.4774 42.6492 25.9514 41.3329 25.7624C40.9863 25.7151 39.5221 25.4946 37.0619 25.4753C32.6588 25.4849 31.4432 26.0127 28.6023 26.3146C25.9346 26.5772 19.607 27.6204 13.9514 25.3694C12.7253 24.874 11.7932 24.3235 11.1849 23.9244C10.4419 22.8234 9.7242 21.8879 9.09493 21.1247C8.84112 20.814 7.57383 19.3226 6.05711 18.8404C5.90483 18.7914 5.49348 18.6741 5.32545 18.8378C5.12152 19.0382 5.54512 19.4049 5.42872 20.0167C5.33332 20.5173 4.98937 20.6083 5.02963 21.0442C5.05939 21.3557 5.23968 21.3671 5.24493 21.7006C5.2493 22.0629 5.03926 22.1565 5.09614 22.4716C5.14515 22.7499 5.32195 22.7508 5.3237 22.995C5.32632 23.2724 5.09964 23.3346 5.11277 23.612C5.12327 23.8378 5.27381 23.8553 5.29219 24.103C5.31144 24.3717 5.14428 24.4461 5.17491 24.6097C5.24755 24.9852 6.21115 24.9406 6.26191 25.2329C6.31792 25.5584 5.17316 25.9715 5.25893 26.2726C5.29831 26.4118 5.56175 26.3715 5.6519 26.5781C5.74467 26.7916 5.50574 26.9351 5.56 27.2292C5.61251 27.5198 5.87245 27.5425 5.8742 27.7806C5.87682 28.0326 5.58363 28.0729 5.53374 28.3608C5.48998 28.6234 5.70791 28.7363 5.8847 29.1739C6.09562 29.6999 5.95471 29.9511 6.07112 30.0132C6.47108 30.2373 8.36589 26.8117 9.95 26.1291C10.1618 26.0354 10.3631 25.9917 10.5504 26.0162H10.5521C10.5933 26.0206 10.6335 26.0293 10.6738 26.0407C10.8296 26.0879 10.9469 26.179 11.0265 26.2586C11.0274 26.2586 11.0274 26.2604 11.0274 26.2604C11.0711 26.3032 11.1035 26.3426 11.1236 26.3698C11.9227 27.1653 12.692 27.8672 13.4193 28.486C13.421 28.4877 13.4228 28.4886 13.4254 28.4904C14.0118 28.9 14.221 29.1538 14.354 29.257" stroke="white" stroke-width="0.2754" stroke-miterlimit="10"/>
<path d="M18.418 31.9438H18.4197C18.4976 31.9823 18.579 32.0208 18.663 32.062C18.6648 32.062 18.6665 32.062 18.6692 32.0637C18.6692 32.0637 18.6727 32.0655 18.6753 32.0655C19.5619 32.4882 20.7495 32.9949 22.2111 33.5122H22.2137" stroke="white" stroke-width="0.2754" stroke-miterlimit="10"/>
<path d="M19.7477 31.7592C19.7381 31.7478 16.6075 32.4252 14.676 31.585C14.6725 31.585 15.1398 30.6801 14.3486 29.2561" stroke="white" stroke-width="0.2754" stroke-miterlimit="10"/>
<path d="M29.5602 33.1542C29.5804 33.1245 25.1431 32.0086 23.8259 32.6764C23.8242 32.6764 23.3393 33.0457 22.5551 32.6527C21.7736 32.2641 22.8431 35.4367 21.2021 36.0406C19.6127 36.6235 25.6866 37.3631 28.0435 35.0455" stroke="white" stroke-width="0.2754" stroke-miterlimit="10"/>
<path d="M40.8867 34.0667C40.9042 34.0439 36.5492 34.0807 34.3682 37.5552C34.39 37.557 36.7505 38.8706 39.6465 37.6646C39.6447 37.6646 40.2241 36.3527 40.8341 36.3177" stroke="white" stroke-width="0.2754" stroke-miterlimit="10"/>
<path d="M20.0334 29.794C20.0447 29.9533 19.9292 30.0916 19.7734 30.1038C19.6176 30.1161 19.4846 29.9962 19.4715 29.8369C19.4601 29.6776 19.5756 29.5393 19.7288 29.5271C19.8828 29.5157 20.0194 29.6347 20.0307 29.794H20.0334Z" fill="#FF5000"/>
<path d="M29.002 29.1008C29.002 29.2321 28.8996 29.3371 28.7736 29.3371C28.6475 29.3371 28.5469 29.2329 28.5469 29.1008C28.5469 28.9686 28.6493 28.8645 28.7753 28.8645C28.9013 28.8645 29.0037 28.9721 29.002 29.1008Z" fill="#FF5000"/>
<path d="M17.8572 28.229C17.8669 28.3621 17.7715 28.4767 17.6454 28.4846C17.5185 28.4916 17.4126 28.3918 17.403 28.2579C17.3934 28.1249 17.4888 28.0102 17.6148 28.0024C17.7417 27.9954 17.8476 28.0951 17.8572 28.229Z" fill="#FF5000"/>
<path d="M32.3881 28.0299C32.3714 28.2609 32.1824 28.4351 31.9689 28.4185C31.7536 28.4045 31.5925 28.2032 31.6074 27.9756C31.624 27.7446 31.8131 27.5704 32.0266 27.587C32.2437 27.601 32.4056 27.8023 32.3881 28.0325V28.0308V28.0299Z" fill="#FF5000"/>
<path d="M38.4047 29.3643C38.3881 29.5954 38.199 29.7695 37.9855 29.7529C37.7702 29.7389 37.6091 29.5376 37.624 29.31C37.6406 29.079 37.8297 28.9048 38.0432 28.9214C38.2603 28.9355 38.4222 29.1367 38.4047 29.3669V29.3652V29.3643Z" fill="#FF5000"/>
<path d="M41.278 27.286C41.2666 27.5013 41.0872 27.665 40.8798 27.6527C40.6724 27.6414 40.5131 27.4602 40.5218 27.2449C40.5332 27.0296 40.71 26.8659 40.92 26.8782C41.1301 26.8896 41.2894 27.0742 41.278 27.286Z" fill="#FF5000"/>
<path d="M42.5559 30.8757C42.5366 31.091 42.3555 31.2494 42.148 31.231C41.9406 31.2144 41.7883 31.0288 41.805 30.8135C41.8216 30.5982 42.0054 30.4398 42.2128 30.4556C42.4202 30.4713 42.5725 30.6612 42.5559 30.8748V30.8757Z" fill="#FF5000"/>
<path d="M36.1015 30.9595C36.0919 31.0383 36.0254 31.0961 35.9493 31.0882C35.8731 31.0786 35.8206 31.0094 35.8302 30.9289C35.8399 30.8501 35.9064 30.7906 35.9825 30.8002C36.0587 30.8099 36.1112 30.879 36.1015 30.9595Z" fill="#FF5000"/>
<path d="M38.5292 31.4113C38.4933 31.5653 38.5869 31.7229 38.7348 31.757C38.8827 31.7929 39.0324 31.6949 39.0656 31.5399C39.1015 31.3859 39.0079 31.2284 38.86 31.1916C38.7121 31.1557 38.5624 31.2538 38.5292 31.4087V31.4104V31.4113Z" fill="#FF5000"/>
<path d="M21.5847 29.5435C21.5655 29.6722 21.6521 29.7938 21.7755 29.8131C21.8989 29.8323 22.0162 29.7439 22.0354 29.6153C22.0547 29.4866 21.968 29.365 21.8446 29.3457C21.7212 29.3265 21.604 29.4149 21.5847 29.5435Z" fill="#FF5000"/>
<path d="M29.7904 31.1407C29.7694 31.272 29.85 31.398 29.9716 31.4217C30.095 31.4453 30.2123 31.3595 30.2359 31.2291C30.2595 31.0978 30.1782 30.9718 30.0547 30.9482C29.9313 30.9246 29.8123 31.0103 29.7904 31.1407Z" fill="#FF5000"/>
<path d="M25.2525 31.1517C25.2359 31.3801 25.4004 31.5832 25.6192 31.6016C25.838 31.6208 26.0271 31.4519 26.0428 31.2209C26.0595 30.9924 25.8949 30.7894 25.6761 30.7684C25.4573 30.7491 25.2665 30.9207 25.249 31.1491L25.2508 31.1508H25.2516L25.2525 31.1517Z" fill="#FF5000"/>
<path d="M22.2156 27.8357C22.1867 28.0475 22.3294 28.2453 22.5325 28.2742C22.7346 28.3048 22.921 28.1569 22.9499 27.9451C22.9788 27.7333 22.8379 27.5355 22.6331 27.5049C22.4309 27.4742 22.2428 27.6221 22.2156 27.8339V27.8357Z" fill="#FF5000"/>
<path d="M26.369 27.9726C26.355 28.1879 26.5117 28.3725 26.7217 28.39C26.9318 28.4067 27.1121 28.2474 27.1296 28.0321C27.1471 27.8168 26.9869 27.6321 26.7769 27.6146C26.5668 27.598 26.3839 27.7573 26.369 27.9726Z" fill="#FF5000"/>
<path d="M31.4698 30.9824C31.468 31.0612 31.5275 31.1303 31.6063 31.1321C31.6824 31.1364 31.749 31.0743 31.7507 30.9938C31.7525 30.915 31.6929 30.8459 31.6142 30.8441C31.538 30.8397 31.4715 30.9019 31.4698 30.9824Z" fill="#FF5000"/>
<path d="M34.5867 29.8463C34.5675 29.9749 34.4554 30.0651 34.3347 30.0485C34.213 30.0318 34.129 29.9119 34.1483 29.7841C34.1675 29.6564 34.2795 29.5653 34.4003 29.582C34.522 29.5986 34.606 29.7185 34.5867 29.8463Z" fill="#FF5000"/>
<path d="M34.3763 27.59C34.343 27.7169 34.4148 27.8456 34.5382 27.8806C34.6616 27.9156 34.7903 27.8421 34.8244 27.7169C34.8603 27.59 34.7859 27.4614 34.6625 27.4264C34.5391 27.3914 34.4104 27.4649 34.3763 27.59Z" fill="#FF5000"/>
<path d="M45.0177 28.4141C44.9792 28.541 45.0465 28.6758 45.1699 28.7143C45.2916 28.7528 45.422 28.6811 45.4605 28.555C45.499 28.429 45.4316 28.2934 45.3082 28.2549C45.1866 28.2163 45.0562 28.2881 45.0177 28.4141Z" fill="#FF5000"/>
<path d="M36.6348 26.1789C36.5963 26.3058 36.6637 26.4406 36.7871 26.4791C36.9088 26.5176 37.0392 26.4458 37.0777 26.3198C37.1162 26.1938 37.0488 26.0581 36.9254 26.0196C36.8038 25.9811 36.6734 26.0528 36.6348 26.1789Z" fill="#FF5000"/>
<path d="M28.8288 56.708C44.2305 56.708 56.7161 44.2224 56.7161 28.8206C56.7161 13.4189 44.2305 0.933258 28.8288 0.933258C13.427 0.933258 0.941406 13.4189 0.941406 28.8206C0.941406 44.2224 13.427 56.708 28.8288 56.708Z" stroke="#FF5000" stroke-width="2" stroke-miterlimit="10"/>
</g>
<defs>
<clipPath id="clip0_1474_2126">
<rect width="58" height="58" fill="white"/>
</clipPath>
</defs>
</svg>
