<svg  width="171" height="292" viewBox="0 0 171 292" fill="none" xmlns="http://www.w3.org/2000/svg">
<path fill-rule="evenodd" clip-rule="evenodd" d="M81.5332 3.46877C81.4114 3.49908 81.3133 3.52349 81.2427 3.54062C80.7146 3.66862 79.1369 4.12466 77.5921 4.70991C76.8201 5.00238 76.0823 5.31746 75.4977 5.62915C75.2055 5.78499 74.9689 5.93083 74.7921 6.06216C74.6052 6.20107 74.5356 6.28692 74.5217 6.30836C73.9315 7.22051 72.9939 7.94395 72.0869 8.50412C71.1645 9.07376 70.1774 9.53186 69.4047 9.87525C67.5861 10.6835 66.1971 11.7788 64.7114 13.2644C63.8662 14.1097 63.1747 14.3969 62.4193 14.7107C62.2775 14.7696 62.1334 14.8294 61.9857 14.8941C61.5234 15.0963 61.0608 15.2086 60.6875 15.2911C60.5994 15.3106 60.5188 15.328 60.4445 15.3441L60.4443 15.3441L60.4441 15.3442C60.1703 15.4033 59.9821 15.444 59.8183 15.5011C59.7825 15.5136 59.7547 15.5247 59.7335 15.5341C59.7357 15.5772 59.7434 15.6427 59.7643 15.7365C59.7816 15.8145 59.8708 16.0062 60.1056 16.41C60.1371 16.4641 60.1707 16.5213 60.2058 16.5811C60.3911 16.8966 60.618 17.283 60.7979 17.6679C61.0076 18.1166 61.2232 18.7017 61.1951 19.3175C61.1633 20.0156 60.8238 20.6427 60.1526 21.077L60.025 21.1596L60.025 21.1597L60.0248 21.1598C59.6528 21.4009 59.3008 21.6291 58.9768 21.8052C58.6053 22.007 58.204 22.179 57.7475 22.2432C56.8081 22.3751 55.9321 22.0085 54.8958 21.4164C54.3802 21.1217 53.6423 21.0161 52.6902 21.024C52.2269 21.0279 51.7529 21.0571 51.2639 21.0875L51.2464 21.0886C50.7747 21.1179 50.2806 21.1486 49.8206 21.1486C49.111 21.1486 48.4406 21.4401 47.5375 21.856L47.4637 21.89C46.6446 22.2678 45.606 22.7468 44.4268 22.7468C43.3988 22.7468 42.6844 22.9254 42.1788 23.2533C41.6961 23.5664 41.2864 24.0922 41.0155 25.0403C40.9056 25.4251 40.8322 25.7465 40.762 26.0538L40.7616 26.0553C40.7339 26.1768 40.7066 26.2961 40.6778 26.4163C40.5868 26.7956 40.4663 27.2537 40.2112 27.6454C39.592 28.5959 38.51 28.7399 37.235 28.7399C37.1672 28.7399 37.0963 28.7397 37.0228 28.7394C36.425 28.7372 35.6559 28.7345 34.9592 28.863C34.0907 29.0232 33.8662 29.2866 33.8238 29.4352C33.239 31.4819 31.7372 33.3752 29.9752 34.8398C28.2062 36.3103 26.0675 37.4389 24.0673 37.8834C22.9903 38.1227 22.3788 38.5674 22.0352 39.0431C21.6868 39.5255 21.5321 40.1534 21.5822 40.9009C21.6848 42.4302 22.6375 44.2126 23.9022 45.3594C23.9564 45.4059 24.0062 45.4586 24.0502 45.5173C24.1595 45.5263 24.2999 45.5191 24.5355 45.5071L24.6627 45.5008L24.6646 45.5007C24.9411 45.487 25.417 45.4636 25.8559 45.6096C26.0999 45.6908 26.3601 45.8315 26.5802 46.0703C26.8013 46.3102 26.9347 46.598 27.002 46.9007C27.094 47.3148 27.1657 48.0706 27.1568 48.7777C27.1522 49.1366 27.1267 49.5237 27.0593 49.874C27.0019 50.1721 26.8788 50.6532 26.5331 50.9989C26.1569 51.3751 25.6505 51.5052 25.2969 51.5629C24.9088 51.6263 24.487 51.6341 24.1054 51.6242C23.7185 51.6143 23.3289 51.5845 23.0034 51.5593C22.6565 51.5324 22.4131 51.5138 22.2523 51.5138C20.7493 51.5138 19.7746 51.9376 19.1324 52.9885C18.2296 54.4658 17.0888 54.9925 15.9554 55.3097C15.6368 55.3989 15.3412 55.4694 15.0587 55.5368L15.0584 55.5369C14.3238 55.7122 13.6782 55.8662 12.9492 56.2712C11.868 56.8719 10.5925 57.8926 9.41749 59.069C8.2424 60.2455 7.22789 61.5176 6.63427 62.5861C6.29712 63.193 6.24566 63.9757 6.3426 65.0098C6.37693 65.376 6.42518 65.7373 6.47611 66.1186L6.47613 66.1187L6.47614 66.1188C6.49686 66.2739 6.51803 66.4324 6.53888 66.5958C6.60832 67.1402 6.67133 67.7215 6.67133 68.2934C6.67133 69.6735 6.63179 70.8808 6.10019 71.8303C5.52517 72.8573 4.50536 73.3912 3.16856 73.8368C2.97028 73.9029 2.88338 73.9771 2.84332 74.0224C2.80416 74.0667 2.76609 74.1327 2.74311 74.2531C2.68898 74.5369 2.74232 74.9883 2.93944 75.6335C3.09538 76.144 3.30556 76.6701 3.52386 77.2166C3.57416 77.3425 3.62489 77.4695 3.67549 77.5976C3.92325 78.2251 4.19925 78.9515 4.26796 79.5699C4.3096 79.9447 4.47795 80.281 4.75559 80.8356L4.81991 80.9642C5.10743 81.5402 5.4727 82.3115 5.4727 83.2762C5.4727 83.8925 5.54607 84.4981 5.63667 85.1536C5.64759 85.2327 5.65883 85.3128 5.6702 85.3939L5.67054 85.3963C5.75076 85.9682 5.83763 86.5877 5.87086 87.2191C5.97253 89.1507 6.41157 89.8322 6.89082 90.1543C7.16293 90.3372 7.54603 90.4743 8.11863 90.5587C8.69458 90.6437 9.3945 90.6666 10.2661 90.6666C11.295 90.6666 12.3707 90.5724 13.5144 90.4723H13.5145H13.5146H13.5148L13.5336 90.4706C14.668 90.3713 15.8659 90.2671 17.0583 90.2671C17.4666 90.2671 17.9309 90.2404 18.459 90.2101L18.7356 90.1943C19.3624 90.1591 20.0546 90.1258 20.7387 90.1432C22.0475 90.1766 23.616 90.3953 24.6686 91.4478C25.3635 92.1427 26.2958 92.4218 27.5207 92.76L27.6178 92.7868C28.7326 93.0939 30.1352 93.4802 31.1699 94.5759C31.7686 95.2097 32.0945 96.0132 32.2737 96.819C32.4532 97.6262 32.4997 98.5006 32.4911 99.3443C32.4825 100.19 32.4174 101.049 32.3574 101.821L32.3528 101.881C32.2933 102.646 32.242 103.308 32.242 103.853C32.242 104.787 32.8676 105.471 33.9188 106.443L34.027 106.543C34.4794 106.961 35.003 107.444 35.4098 107.98C35.8666 108.582 36.2374 109.326 36.2374 110.245C36.2374 110.771 36.3318 111.169 36.4946 111.478C36.6528 111.777 36.9055 112.048 37.3212 112.279C38.0931 112.708 38.5976 113.422 38.9403 114.084C39.2875 114.755 39.5243 115.484 39.7003 116.055C40.1349 117.468 40.1449 119.21 40.0721 120.811C40.0407 121.501 39.9954 122.155 39.9526 122.771C39.891 123.658 39.8347 124.469 39.8333 125.201L39.8336 125.212L39.8337 125.228C39.8337 125.387 39.8344 125.548 39.8351 125.711C39.8424 127.455 39.8505 129.398 39.0372 131.228C38.7472 131.88 38.5591 132.796 38.5363 133.751C38.5134 134.71 38.6599 135.6 38.9441 136.221C39.363 137.138 39.4688 138.116 39.4858 139.006C39.4944 139.454 39.4804 139.901 39.4654 140.32L39.4602 140.464L39.4602 140.465C39.4467 140.837 39.4341 141.183 39.4341 141.521C39.4341 143.026 39.5473 144.471 39.6621 145.937L39.6621 145.937L39.6621 145.938C39.7242 146.73 39.7867 147.528 39.8321 148.346C39.8807 149.22 40.165 149.685 40.5084 149.988C40.8926 150.327 41.4574 150.556 42.2254 150.741C42.6024 150.832 42.9984 150.905 43.4205 150.982L43.4965 150.996C43.8871 151.067 44.3016 151.143 44.7013 151.234C45.532 151.425 46.4678 151.72 47.1827 152.364C49.4592 154.413 49.4415 157.022 49.4254 159.4L49.4254 159.402C49.424 159.599 49.4227 159.795 49.4227 159.988C49.4227 160.646 49.5828 161.251 49.7887 162.025C49.9871 162.772 50.2218 163.659 50.2218 164.694C50.2218 165.263 50.3604 166.07 50.5928 166.92C50.8228 167.762 51.1235 168.57 51.4036 169.13L51.407 169.137C51.4322 169.188 51.4497 169.224 51.8208 169.353L51.8756 169.372C52.2259 169.492 52.9648 169.744 53.3319 170.569C53.7305 171.466 53.7644 172.126 53.8013 172.844C53.8059 172.933 53.8105 173.023 53.8159 173.114C53.8188 173.162 53.8418 173.266 54.0039 173.474C54.1465 173.656 54.3236 173.831 54.5611 174.066L54.6164 174.121C54.6521 174.157 54.6891 174.193 54.7275 174.232C55.2987 174.802 56.1661 175.694 56.2143 177.044C56.2247 177.337 56.2527 177.701 56.2857 178.129L56.2933 178.227C56.3287 178.688 56.3672 179.205 56.387 179.722C56.4244 180.699 56.4101 181.89 56.0478 182.751C55.7528 183.451 55.1834 183.846 54.6121 184.055C54.0615 184.257 53.4477 184.314 52.8954 184.321C52.3338 184.329 51.7565 184.285 51.2592 184.243L51.0831 184.228H51.083C50.6431 184.191 50.2946 184.162 50.0209 184.162C49.5793 184.162 49.0678 184.391 48.4267 184.855C48.1168 185.079 47.8119 185.331 47.4914 185.598L47.4518 185.631C47.1538 185.879 46.8338 186.145 46.521 186.37L46.5216 186.37L46.5273 186.366C46.5291 186.365 46.5301 186.364 46.5303 186.364C46.5304 186.364 46.5304 186.364 46.5303 186.365L46.5301 186.365L46.5286 186.367L46.5225 186.375C46.4993 186.404 46.426 186.496 46.3125 186.7C46.1665 186.963 46.0031 187.322 45.8322 187.758C45.4915 188.628 45.1511 189.731 44.8791 190.825C44.8559 190.919 44.8332 191.012 44.8111 191.105C45.1923 191.313 45.4067 191.754 45.3077 192.199C45.2462 192.476 45.1497 192.739 45.0441 192.977C45.1585 193.092 45.2367 193.227 45.2826 193.361C45.3862 193.665 45.3112 193.919 45.2947 193.975L45.2945 193.976C45.251 194.123 45.1806 194.232 45.1647 194.257L45.1631 194.26C45.1145 194.336 45.0555 194.411 45.016 194.46C44.9585 194.531 44.8676 194.639 44.7596 194.766C44.7186 194.86 44.6725 194.965 44.6252 195.067C44.6337 195.173 44.6255 195.282 44.5983 195.39C44.4842 195.847 44.0729 196.151 43.6222 196.148C43.4567 196.365 43.2981 196.584 43.1575 196.796C42.8362 197.281 42.7068 197.591 42.6891 197.714C42.6145 198.236 42.6539 198.905 42.6942 199.589L42.6974 199.643C42.7645 200.783 43.1121 202.099 43.5464 203.521C43.647 203.85 43.7528 204.186 43.8596 204.526L43.8603 204.528L43.8604 204.528L43.8606 204.529L43.8606 204.529C44.1996 205.607 44.5489 206.718 44.7754 207.737C44.9545 208.543 45.0319 209.306 45.0849 210.006C45.1014 210.224 45.1153 210.432 45.1287 210.632C45.1598 211.096 45.1883 211.52 45.2403 211.95C45.381 213.113 45.676 214.115 46.5833 215.123C48.886 217.682 49.6203 221.469 49.6203 224.458V224.467V224.475V224.483V224.492V224.5V224.509V224.517V224.526V224.535V224.544V224.552V224.561V224.57V224.579V224.589V224.598V224.607V224.616V224.625V224.635V224.644V224.654V224.663V224.673V224.683V224.692V224.702V224.712V224.722V224.732V224.742V224.752V224.762V224.772V224.782V224.792V224.803V224.813V224.823V224.834V224.844V224.855V224.865V224.876V224.887V224.898V224.908V224.919V224.93V224.941V224.952V224.963V224.974V224.985V224.996V225.007V225.019V225.03V225.041V225.052V225.064V225.075V225.087V225.098V225.11V225.121V225.133V225.145V225.156V225.168V225.18V225.192V225.204V225.216V225.228V225.24V225.252V225.264V225.276V225.288V225.3V225.312V225.324V225.337V225.349V225.361V225.373V225.386V225.398V225.411V225.423V225.436V225.448V225.461V225.473V225.486V225.499V225.511V225.524V225.537V225.549V225.562V225.575V225.588V225.601V225.613V225.626V225.639V225.652V225.665V225.678V225.691V225.704V225.717V225.73V225.744V225.757V225.77V225.783V225.796V225.809V225.823V225.836V225.849V225.862V225.876V225.889V225.902V225.916V225.929V225.942V225.956V225.969V225.982V225.996V226.009V226.023V226.036V226.05V226.063V226.077V226.09V226.104V226.117V226.131V226.144V226.158V226.172V226.185V226.199V226.212V226.226V226.24V226.253V226.267V226.28V226.294V226.308V226.321V226.335V226.349V226.362V226.376V226.39V226.403V226.417V226.431V226.444V226.458V226.472V226.485V226.499V226.513V226.526V226.54V226.554V226.567V226.581V226.595V226.608V226.622V226.636V226.649V226.663V226.676V226.69V226.704V226.717V226.731V226.745V226.758V226.772V226.785V226.799V226.812V226.826V226.84V226.853V226.867V226.88V226.894V226.907V226.921V226.934V226.948V226.961V226.974V226.988V227.001V227.015V227.028V227.041V227.055V227.068V227.081V227.095V227.108V227.121V227.124C49.6721 227.225 49.7003 227.313 49.7114 227.348L49.7124 227.351C49.7585 227.495 49.7984 227.677 49.8313 227.838C49.8734 228.045 49.921 228.308 49.9673 228.564L49.9674 228.564L49.9682 228.569C49.9951 228.718 50.0215 228.864 50.0461 228.994C50.0817 229.184 50.115 229.35 50.1452 229.481C50.1582 229.537 50.1686 229.577 50.176 229.605C50.1806 229.622 50.184 229.633 50.1861 229.641C50.1881 229.648 50.189 229.651 50.1888 229.651C50.1887 229.651 50.1884 229.65 50.1877 229.649L50.1848 229.642C50.8484 231.136 51.2348 232.493 51.6459 233.936L51.741 234.27C51.776 234.392 51.919 234.576 52.4236 234.863C52.5767 234.95 52.6878 235.008 52.809 235.071L52.8092 235.071L52.8122 235.073C52.9152 235.126 53.0258 235.184 53.1758 235.267C53.4232 235.403 53.7443 235.592 54.0006 235.849C54.4495 236.297 54.5638 236.922 54.6069 237.347C54.6543 237.813 54.6381 238.337 54.621 238.795L54.6154 238.945C54.5992 239.371 54.5848 239.751 54.5995 240.093C54.6168 240.493 54.6717 240.689 54.7097 240.761C55.3487 241.968 55.5171 242.598 55.7711 243.549C55.8381 243.8 55.911 244.073 56.0001 244.385C56.8086 247.215 57.8029 249.292 59.2055 251.941C59.9451 253.338 60.4351 254.799 60.8806 256.197C60.9337 256.364 60.9862 256.529 61.0383 256.694C61.2562 257.382 61.4683 258.053 61.7009 258.708C62.1551 258.865 62.4675 259.192 62.6619 259.433C62.8783 259.702 63.0688 260.022 63.2178 260.273L63.2351 260.302C63.405 260.587 63.5317 260.796 63.6575 260.953C64.4466 261.94 64.8459 263.169 65.1833 264.208C65.2397 264.381 65.2944 264.55 65.3489 264.711C65.7562 265.914 66.1865 266.885 67.0802 267.6C67.2906 267.768 67.4469 268.016 67.5237 268.14C67.6276 268.309 67.7318 268.503 67.8243 268.692C67.9173 268.881 68.0061 269.079 68.0767 269.26C68.1053 269.333 68.1403 269.426 68.1715 269.526L68.245 269.521C68.2691 269.52 68.295 269.518 68.3234 269.516C68.3437 269.515 68.3653 269.513 68.3883 269.512L68.4192 269.51C68.4444 269.508 68.4713 269.507 68.5002 269.505C68.7023 269.495 69.0331 269.484 69.3626 269.579C69.8845 269.728 70.2917 270.058 70.5944 270.365C70.9019 270.677 71.1778 271.045 71.4131 271.369C71.4626 271.437 71.5102 271.503 71.5563 271.567L71.5674 271.582L71.5706 271.587C71.7532 271.84 71.9138 272.063 72.0802 272.265C72.2948 272.527 72.4483 272.663 72.5526 272.725C72.8949 272.926 73.231 273.18 73.5354 273.419C73.6439 273.504 73.7472 273.587 73.8479 273.667C74.0479 273.826 74.2379 273.978 74.439 274.128C75.0652 274.597 75.504 274.817 75.8311 274.836C76.46 274.873 76.9907 274.769 77.604 274.628L77.7378 274.597L77.7663 274.59C78.3289 274.459 79.0023 274.302 79.7653 274.302C80.5151 274.302 81.2585 274.193 82.0349 274.078L82.0872 274.07C82.8122 273.962 83.6114 273.844 84.3472 273.879C85.1333 273.916 85.9559 274.132 86.6345 274.787C87.2919 275.423 87.6893 276.352 87.9069 277.549C88.0042 278.084 88.0102 278.596 88.0055 279.03L88.0044 279.124C88.0034 279.191 88.0024 279.255 88.0014 279.317L88.0013 279.322C87.9961 279.643 87.9918 279.901 88.0123 280.155C88.0368 280.461 88.0936 280.67 88.1852 280.834C88.2713 280.989 88.4245 281.169 88.7502 281.355C89.6957 281.895 91.1112 282.779 91.9548 283.454C92.289 283.721 92.7882 283.992 93.4358 284.287C93.8302 284.467 94.2294 284.635 94.6483 284.811C94.9284 284.929 95.2173 285.05 95.5194 285.181C96.2375 285.493 96.984 285.842 97.6291 286.252C98.265 286.655 98.8912 287.172 99.2732 287.86C99.7617 288.739 100.165 289.044 100.412 289.11C100.564 289.151 100.95 289.172 101.685 288.437C102.501 287.621 102.739 287.284 102.852 286.956C102.981 286.583 102.989 286.128 102.989 284.885C102.989 284.326 102.936 283.614 102.869 282.784L102.846 282.512C102.786 281.769 102.719 280.959 102.682 280.156C102.641 279.254 102.636 278.327 102.723 277.474C102.809 276.633 102.992 275.783 103.381 275.083C106.448 269.563 106.526 263.775 105.172 257.684C104.743 255.751 104.866 254.419 105.394 253.118C105.643 252.503 105.973 251.916 106.323 251.316C106.39 251.203 106.457 251.088 106.525 250.972C106.825 250.462 107.144 249.919 107.483 249.279C108.778 246.832 108.842 245.167 108.845 242.113L108.825 242.102C108.817 242.097 108.808 242.092 108.799 242.086C108.326 241.802 108.172 241.188 108.456 240.714C109.54 238.909 110.056 235.88 109.912 233.298C109.873 232.59 109.686 232.004 109.466 231.312C109.372 231.017 109.271 230.703 109.174 230.351C108.863 229.233 108.68 227.948 109.346 226.448C110.146 224.648 111.144 222.964 112.126 221.32L112.254 221.107C113.202 219.523 114.131 217.971 114.917 216.311C115.108 215.907 115.287 215.458 115.487 214.957L115.487 214.957C115.637 214.58 115.798 214.174 115.986 213.737C116.376 212.826 116.877 211.784 117.539 211.122C117.875 210.785 118.268 210.503 118.727 210.388C119.229 210.262 119.703 210.364 120.09 210.615C120.443 210.843 120.688 211.169 120.861 211.462C121.038 211.762 121.177 212.097 121.291 212.42C121.504 213.029 121.66 213.705 121.778 214.216L121.778 214.216L121.795 214.293L121.834 214.46C121.959 214.415 122.097 214.36 122.247 214.299C122.404 214.235 122.565 214.167 122.725 214.099L122.761 214.084C122.848 214.047 122.936 214.01 123.022 213.974C123.08 213.949 123.138 213.925 123.194 213.902C123.341 213.842 123.491 213.783 123.628 213.735C123.705 213.709 123.807 213.675 123.918 213.649C123.992 213.549 124.083 213.385 124.197 213.144C124.255 213.023 124.311 212.897 124.372 212.762L124.373 212.758C124.432 212.628 124.495 212.488 124.558 212.354C124.675 212.109 124.843 211.775 125.07 211.519C125.761 210.742 126.169 209.669 126.679 208.326C127.16 207.058 127.728 205.565 128.797 204.362C131.27 201.58 131.246 198.622 131.214 194.716C131.21 194.261 131.207 193.794 131.207 193.313C131.207 191.661 132.072 190.042 132.801 188.678L132.805 188.67L132.83 188.625C133.609 187.167 134.277 185.918 134.406 184.69C134.462 184.161 134.748 183.456 135.061 182.804C135.395 182.108 135.833 181.323 136.302 180.584C136.769 179.849 137.284 179.13 137.776 178.578C138.021 178.304 138.281 178.046 138.546 177.847C138.783 177.669 139.153 177.435 139.601 177.408C141.558 177.293 142.965 176.112 144.507 174.451C144.751 174.188 145 173.91 145.257 173.625C146.535 172.2 147.988 170.581 149.861 169.644C153.209 167.97 156.334 165.314 157.794 162.029C158.12 161.294 158.106 160.396 158.071 159.169L158.07 159.124V159.123C158.038 158.008 157.998 156.615 158.563 155.344C159.45 153.347 160.703 151.03 161.809 149.15C161.983 148.855 162.14 148.594 162.282 148.357C162.729 147.613 163.033 147.105 163.258 146.55C163.53 145.88 163.683 145.128 163.683 143.801C163.683 143.512 163.59 143.389 163.512 143.32C163.409 143.23 163.216 143.141 162.92 143.125C162.279 143.09 161.636 143.404 161.39 143.798C161.06 144.326 160.521 144.683 160.014 144.918C159.487 145.164 158.881 145.33 158.282 145.414C157.683 145.498 157.05 145.507 156.465 145.407C155.898 145.309 155.27 145.09 154.806 144.626C154.297 144.117 154.092 143.407 153.996 142.797C153.897 142.16 153.892 141.452 153.917 140.783C153.938 140.23 153.982 139.666 154.022 139.16L154.022 139.16L154.022 139.159L154.035 138.996L154.046 138.846C154.085 138.342 154.11 137.94 154.107 137.642L154.089 137.619C153.983 137.491 153.818 137.321 153.595 137.106C153.455 136.971 153.289 136.815 153.111 136.649L153.11 136.648C152.772 136.332 152.394 135.979 152.083 135.659C151.836 135.405 151.59 135.132 151.394 134.859C151.216 134.613 150.991 134.249 150.936 133.829C150.905 133.595 150.923 133.315 151.058 133.037C151.194 132.756 151.408 132.562 151.63 132.434C152.029 132.204 152.52 132.153 152.97 132.153C154.255 132.153 155.184 132.597 155.967 133.18C156.341 133.459 156.686 133.773 157.003 134.064L157.06 134.116C157.366 134.397 157.654 134.661 157.972 134.916C158.165 135.07 158.399 135.164 158.731 135.231C158.9 135.264 159.082 135.289 159.294 135.314L159.428 135.33C159.598 135.349 159.789 135.371 159.974 135.399C160.454 135.47 161.025 135.594 161.58 135.916C162.151 136.248 162.638 136.75 163.023 137.477C163.36 138.114 163.839 138.377 164.536 138.494C165.103 138.589 165.693 138.574 166.389 138.557C166.686 138.55 167.002 138.542 167.344 138.542C167.961 138.542 168.245 138.441 168.366 138.369C168.443 138.323 168.499 138.266 168.545 138.091C168.603 137.874 168.62 137.55 168.595 137.05C168.583 136.809 168.563 136.549 168.54 136.26L168.539 136.248C168.517 135.966 168.493 135.658 168.476 135.338C168.374 133.504 167.654 131.387 166.519 130.252C164.945 128.677 163.73 126.946 162.61 125.251C162.384 124.908 162.162 124.568 161.942 124.231C161.062 122.881 160.214 121.582 159.228 120.35C158.801 119.816 158.593 119.201 158.474 118.635C158.371 118.145 158.321 117.622 158.278 117.161L158.261 116.979C158.154 115.871 158.021 115.154 157.567 114.673L157.562 114.67L157.55 114.659C157.538 114.649 157.521 114.635 157.496 114.616C157.441 114.573 157.366 114.519 157.27 114.454C157.08 114.326 156.845 114.176 156.566 113.999L156.566 113.999L156.564 113.998L156.564 113.998L156.545 113.985C155.985 113.63 155.279 113.182 154.656 112.698C154.063 112.237 153.402 111.64 153.071 110.949C152.893 110.58 152.78 110.122 152.886 109.625C152.992 109.123 153.292 108.722 153.676 108.414C154.068 108.101 154.402 107.503 154.626 106.555C154.847 105.625 154.931 104.492 154.936 103.275C154.94 102.064 154.867 100.818 154.79 99.669L154.77 99.3757L154.757 99.1923L154.757 99.1915C154.692 98.2434 154.632 97.3585 154.632 96.684C154.632 95.545 154.507 94.4978 154.373 93.3758L154.373 93.3725C154.24 92.2611 154.099 91.0797 154.099 89.7629C154.099 88.6972 153.863 87.6424 153.593 86.4791L153.571 86.3853C153.316 85.2871 153.035 84.0744 153.035 82.8418C153.035 82.7017 153.05 82.4838 153.064 82.2758L153.074 82.1267C153.093 81.8478 153.11 81.5447 153.11 81.26C153.11 81.0769 153.103 80.9247 153.09 80.8056C152.845 80.7463 152.663 80.7151 152.475 80.6828L152.475 80.6828L152.475 80.6827C152.303 80.6532 152.126 80.6228 151.89 80.5691C151.319 80.4391 150.789 80.2236 150.019 79.7105C149.366 79.2747 148.319 78.5526 147.342 77.7718C146.854 77.3816 146.371 76.9668 145.958 76.5578C145.558 76.1608 145.173 75.7183 144.932 75.2708C144.558 74.5773 144.405 73.8059 144.301 73.1584C144.271 72.9737 144.245 72.8013 144.221 72.6386L144.221 72.6359L144.22 72.6314C144.153 72.1787 144.097 71.8014 143.997 71.4463L143.995 71.4432C143.987 71.43 143.955 71.377 143.864 71.2813C143.738 71.1476 143.565 70.9997 143.343 70.8185C143.301 70.7848 143.257 70.7494 143.212 70.7126C143.034 70.5689 142.831 70.4052 142.653 70.2454C142.435 70.0495 142.169 69.7855 141.986 69.4661C141.164 68.0273 141.072 66.7644 141.066 65.6132C141.065 65.4321 141.065 65.2565 141.066 65.0848C141.071 64.1649 141.074 63.3559 140.802 62.3963L140.802 62.3966C140.801 62.397 140.779 62.3435 140.701 62.2199C140.615 62.0814 140.492 61.9059 140.335 61.6984C140.024 61.2848 139.615 60.7896 139.182 60.2882C138.315 59.2834 137.401 58.3057 137.09 57.994C136.912 57.8162 136.617 57.6834 136.1 57.6326C135.577 57.5811 134.97 57.6254 134.27 57.6846L134.158 57.6941L134.158 57.6941C133.53 57.7476 132.81 57.8089 132.17 57.7535C131.492 57.6949 130.669 57.4886 130.116 56.7769C128.152 54.2519 128.344 51.4084 128.732 48.8936C128.804 48.4271 128.881 47.9811 128.956 47.5466L128.956 47.5456L128.957 47.5437C129.093 46.7552 129.222 46.0046 129.303 45.238C129.426 44.0801 129.415 43.0391 129.145 42.0927C128.896 41.2196 128.419 40.9096 127.685 40.4861L127.588 40.4302C126.839 40 125.789 39.3969 125.359 37.8927C124.815 35.9868 124.816 33.992 124.818 32.0405L124.818 31.732C124.818 30.3567 124.917 28.9793 125.016 27.6397L125.025 27.5166L125.025 27.5162C125.122 26.2081 125.216 24.9365 125.228 23.674C125.253 21.0823 124.93 18.6174 123.613 16.2459C123.435 15.9253 123.342 15.5323 123.282 15.1946C123.219 14.8328 123.174 14.4176 123.137 13.9899C123.102 13.5731 123.076 13.1754 123.049 12.7751L123.049 12.7747L123.049 12.7743L123.049 12.774L123.049 12.7738C123.016 12.2754 122.983 11.773 122.931 11.2248C122.843 10.2835 122.72 9.48704 122.526 8.94601C122.426 8.6679 122.347 8.55193 122.306 8.50826C120.936 8.51535 118.988 8.80307 117.256 9.43716C115.452 10.098 114.164 11.0295 113.736 12.1297C113.549 12.6092 113.434 12.9705 113.34 13.2644L113.31 13.3585L113.296 13.403C113.218 13.6492 113.1 14.0179 112.879 14.2982C112.545 14.7229 112.103 14.8395 111.749 14.8764C111.517 14.9007 111.212 14.8992 110.889 14.8976C110.809 14.8972 110.727 14.8968 110.645 14.8968H110.635H110.625H110.615H110.605H110.595H110.586H110.576H110.566H110.556H110.546H110.537H110.527H110.517H110.507H110.497H110.487H110.478H110.468H110.458H110.448H110.438H110.429H110.419H110.409H110.399H110.389H110.379H110.37H110.36H110.35H110.34H110.33H110.321H110.311H110.301H110.291H110.281H110.271H110.262H110.252H110.242H110.232H110.222H110.212H110.203H110.193H110.183H110.173H110.163H110.154H110.144H110.134H110.124H110.114H110.104H110.095H110.085H110.075H110.065H110.055H110.046H110.036H110.026H110.016H110.006H109.996H109.987H109.977H109.967H109.957H109.947H109.938H109.928H109.918H109.908H109.898H109.888H109.879H109.869H109.859H109.849H109.839H109.829H109.82H109.81H109.8H109.79H109.78H109.771H109.761H109.751H109.741H109.731H109.721H109.712H109.702H109.692H109.682H109.672H109.663H109.653H109.643H109.633H109.623H109.613H109.604H109.594H109.584H109.574H109.564H109.554H109.545H109.535H109.525H109.515H109.505H109.496H109.486H109.476H109.466H109.456H109.446H109.437H109.427H109.417H109.407H109.397H109.388H109.378H109.368H109.358H109.348H109.338H109.329H109.319H109.309H109.299H109.289H109.28H109.27H109.26H109.25H109.24H109.23H109.221H109.211H109.201H109.191H109.181H109.171H109.162H109.152H109.142H109.132H109.122H109.113H109.103H109.093H109.083H109.073H109.063H109.054H109.044H109.034H109.024H109.014H109.005H108.995H108.985H108.975H108.965H108.955H108.946H108.936H108.926H108.916H108.906H108.897H108.887H108.877H108.867H108.857H108.847H108.838H108.828H108.818H108.808H108.798H108.788H108.779H108.769H108.759H108.749H108.739H108.73H108.72H108.71H108.7H108.69H108.68H108.671H108.661H108.651H108.641H108.631H108.622H108.612H108.602H108.592H108.582H108.572H108.563H108.553H108.543H108.533H108.523H108.514H108.504H108.494H108.484H108.474H108.464H108.455H108.445H108.435H108.425H108.415H108.405H108.396H108.386H108.376H108.366H108.356H108.347H108.337H108.327H108.317H108.307H108.297H108.288H108.278H108.268H108.258H108.248H108.239H108.229H108.219H108.209H108.199H108.189H108.18H108.17H108.16H108.15H108.14H108.131H108.121H108.111H108.101H108.091H108.081H108.072H108.062H108.052H108.042H108.032H108.022H108.013H108.003H107.993H107.983H107.973H107.964H107.954H107.944H107.934H107.924H107.914H107.905H107.895H107.885H107.875H107.865H107.856H107.846H107.836H107.826H107.816H107.806H107.797H107.787H107.777H107.767H107.757H107.748H107.738H107.728H107.718H107.708H107.698H107.689H107.679H107.669H107.659H107.649H107.639H107.63H107.62H107.61H107.6H107.59H107.581H107.571H107.561H107.551H107.541H107.531H107.522H107.512H107.502H107.492H107.482H107.473H107.463H107.453H107.443H107.433H107.423H107.414H107.404H107.394H107.384H107.374H107.365H107.355H107.345H107.335H107.325H107.315H107.306H107.296H107.286H107.276H107.266H107.256H107.247H107.237H107.227H107.217H107.207H107.198H107.188H107.178H107.168H107.158H107.148H107.139H107.129H107.119H107.109H107.099H107.09H107.08H107.07H107.06H107.05H107.04H107.031H107.021H107.011H107.001H106.991H106.981H106.972H106.962H106.952H106.942H106.932H106.923H106.913H106.903H106.893H106.883H106.873H106.864H106.854H106.844H106.834H106.824H106.815H106.805H106.795H106.785H106.775H106.765H106.756H106.746H106.736H106.726H106.716H106.707H106.697H106.687H106.677H106.667H106.657H106.648H106.638H106.628H106.618H106.608H106.598H106.589H106.579H106.569H106.559H106.549H106.54H106.53H106.52H106.51H106.5H106.49H106.481H106.471H106.461H106.451H106.441H106.432H106.422H106.412H106.402H106.392H106.382H106.373H106.363H106.353H106.343H106.333H106.324H106.314H106.304H106.294H106.284H106.274H106.265H106.255H106.245H106.235H106.225H106.215H106.206H106.196H106.186H106.176H106.166H106.157H106.147H106.137H106.127H106.117H106.107H106.098H106.088H106.078H106.068H106.058H106.049H106.039H106.029H106.019H106.009H105.999H105.99H105.98H105.97H105.96H105.95H105.941H105.931H105.921H105.911H105.901H105.891H105.882H105.872H105.862H105.852H105.842H105.832H105.823H105.813H105.803H105.793H105.783H105.774H105.764H105.754H105.744H105.734H105.724H105.715H105.705H105.695H105.685H105.675H105.666H105.656H105.646H105.636H105.626H105.616C104.685 14.8968 103.836 14.6695 103.339 13.9401C102.937 13.3486 102.936 12.6318 102.957 12.1617C102.931 12.181 102.904 12.1992 102.876 12.2162C102.402 12.5003 101.788 12.3468 101.504 11.8732C101.025 11.0754 100.804 10.1225 100.635 9.39143L100.634 9.39107C100.596 9.2264 100.561 9.073 100.525 8.93518C100.304 8.07234 100.085 7.65814 99.6896 7.43245C99.1211 7.10756 98.6936 6.62709 98.3771 6.25574C98.0554 6.2371 97.7183 6.21266 97.3862 6.17678C96.76 6.10911 96.0743 5.99383 95.4918 5.76157C94.9287 5.53707 94.241 5.11146 94.007 4.29271C93.8553 3.76168 94.1628 3.20819 94.6938 3.05647C95.2192 2.90636 95.7666 3.20573 95.9251 3.72637C95.9427 3.7477 96.0136 3.81653 96.2325 3.90379C96.4222 3.97944 96.66 4.04231 96.938 4.09383C96.9296 3.97287 96.931 3.86929 96.9329 3.7944C96.9364 3.65032 96.9488 3.49435 96.958 3.37839L96.958 3.378C96.9604 3.34709 96.9627 3.31904 96.9644 3.29482L96.9678 3.24608C96.8287 3.18913 96.6104 3.13248 96.3059 3.08471C95.9852 3.0344 95.6438 3.00421 95.2995 2.97376L95.2309 2.9677L95.2077 2.96564C94.8904 2.93753 94.492 2.90223 94.2014 2.82472C93.7257 2.69789 93.1431 2.67128 92.4595 2.68979C92.2215 2.69623 91.943 2.71019 91.6542 2.72466C91.2166 2.74658 90.7551 2.7697 90.3748 2.7697C90.3746 2.7697 90.3743 2.76969 90.3741 2.76969C90.3383 2.76969 90.303 2.76781 90.2682 2.76414C89.9181 2.72728 89.6219 2.50984 89.4744 2.20669C89.3767 2.18956 89.2334 2.17356 89.0347 2.16801C88.343 2.14869 87.3531 2.26081 86.2622 2.44433C84.3724 2.76227 82.3799 3.25808 81.5332 3.46877ZM90.9464 0.756749C90.778 0.593681 90.5826 0.477918 90.4048 0.402863C90.0024 0.233071 89.5248 0.180911 89.0906 0.168786C88.195 0.143777 87.0461 0.284357 85.9304 0.472047C83.9529 0.804726 81.8703 1.32359 81.0405 1.53032L81.0395 1.53056L81.037 1.53118C80.9238 1.5594 80.8341 1.58174 80.7715 1.59692C80.1593 1.74533 78.5023 2.22637 76.8836 2.83963C76.0738 3.14643 75.2476 3.49596 74.5567 3.86435C74.2113 4.04854 73.8822 4.24661 73.5993 4.45681C73.3266 4.65943 73.0426 4.91274 72.8426 5.22185C72.4924 5.763 71.8531 6.29778 71.0359 6.80248C70.2341 7.2977 69.3496 7.71112 68.5925 8.04763C66.474 8.98918 64.8864 10.261 63.2972 11.8502C62.7454 12.402 62.4102 12.543 61.7055 12.8392L61.7054 12.8393L61.7047 12.8395C61.5508 12.9042 61.3793 12.9763 61.1841 13.0618C60.9092 13.182 60.6054 13.261 60.2559 13.3383C60.2016 13.3503 60.1437 13.3627 60.083 13.3756L60.0826 13.3757L60.0825 13.3757C59.797 13.4369 59.4523 13.5106 59.1598 13.6126C58.7924 13.7407 58.303 13.977 57.9963 14.4911C57.6846 15.0137 57.687 15.6083 57.8119 16.1704C57.9097 16.6104 58.183 17.0823 58.3767 17.4153C58.4164 17.4837 58.4557 17.5507 58.4943 17.6166C58.6795 17.9326 58.8495 18.2227 58.986 18.5147C59.1551 18.8766 59.2028 19.1028 59.1972 19.2265L59.1969 19.235C59.1958 19.2737 59.1947 19.3147 59.0661 19.3978L58.9508 19.4725L58.9508 19.4725L58.9506 19.4727C58.5573 19.7274 58.2736 19.9111 58.0218 20.0479C57.7566 20.192 57.5944 20.245 57.4693 20.2626C57.2456 20.294 56.8868 20.2506 55.8881 19.6799C54.8903 19.1097 53.7 19.0156 52.6736 19.0241C52.1521 19.0284 51.6288 19.0609 51.1522 19.0906L51.1398 19.0913C50.6478 19.1219 50.2124 19.1486 49.8206 19.1486C48.6328 19.1486 47.5898 19.6295 46.7679 20.0085L46.7009 20.0394C45.7959 20.4562 45.1297 20.7468 44.4268 20.7468C43.1981 20.7468 42.0468 20.9551 41.0905 21.5753C40.1114 22.2104 39.463 23.194 39.0925 24.4908C38.9665 24.9317 38.8746 25.3341 38.8017 25.6534L38.8016 25.6535C38.7767 25.7625 38.754 25.8619 38.733 25.9497C38.6394 26.3398 38.5808 26.4841 38.5354 26.5537L38.5336 26.5569C38.5272 26.569 38.5121 26.5974 38.3846 26.6364C38.1957 26.6941 37.8576 26.7399 37.235 26.7399C37.1764 26.7399 37.1111 26.7396 37.0401 26.7392H37.0396C36.4593 26.7361 35.4925 26.7309 34.5964 26.8962C33.6765 27.0659 32.2931 27.5127 31.9007 28.8858C31.4647 30.4118 30.2772 31.9881 28.6968 33.3018C27.1233 34.6097 25.2664 35.5681 23.6334 35.931C22.1864 36.2526 21.1031 36.9178 20.4139 37.872C19.7296 38.8195 19.5134 39.9415 19.5867 41.0347C19.7271 43.1282 20.9338 45.3246 22.4684 46.7578C22.8011 47.2523 23.3089 47.4306 23.6991 47.489C24.0353 47.5393 24.4125 47.5179 24.6602 47.5038L24.7137 47.5008L24.7612 47.4983C24.8927 47.4918 24.9937 47.4891 25.0778 47.4919C25.1205 47.7744 25.1631 48.2606 25.1569 48.7525C25.1532 49.0484 25.1319 49.306 25.0954 49.4959C25.09 49.5237 25.0848 49.5477 25.0799 49.5682C25.0522 49.5749 25.0175 49.5821 24.9747 49.589C24.768 49.6228 24.4903 49.6335 24.1569 49.6249C23.8289 49.6164 23.4883 49.5908 23.1577 49.5652L23.1034 49.561L23.1032 49.561H23.1032H23.1031C22.8091 49.5382 22.4948 49.5138 22.2523 49.5138C20.3114 49.5138 18.5485 50.1085 17.4258 51.9456C16.8744 52.8479 16.2539 53.1493 15.4163 53.3837C15.2295 53.436 15.0166 53.4865 14.7841 53.5416L14.7836 53.5417L14.7834 53.5418C13.9906 53.7297 12.97 53.9717 11.9779 54.5229C10.6809 55.2435 9.25792 56.3986 8.00242 57.6557C6.74696 58.9127 5.59883 60.3317 4.88596 61.6149C4.23976 62.778 4.24682 64.0817 4.35133 65.1965C4.38959 65.6046 4.4459 66.0262 4.49876 66.422L4.4988 66.4223L4.49881 66.4224L4.49885 66.4226C4.51838 66.5689 4.53745 66.7117 4.55495 66.8489C4.62251 67.3785 4.67133 67.8551 4.67133 68.2934C4.67133 69.7745 4.58912 70.4353 4.3551 70.8532C4.1645 71.1937 3.77481 71.5265 2.53611 71.9394C2.06562 72.0963 1.65772 72.3438 1.34469 72.698C1.03075 73.0532 0.857453 73.4646 0.778532 73.8784C0.628881 74.663 0.809672 75.5075 1.02671 76.2179C1.20965 76.8167 1.45893 77.4399 1.67863 77.9892L1.67866 77.9893L1.67874 77.9895L1.67908 77.9903C1.72616 78.108 1.77187 78.2223 1.81528 78.3322C2.08382 79.0123 2.24625 79.4853 2.28019 79.7908C2.36395 80.5446 2.70098 81.208 2.94908 81.6964L2.95027 81.6987C2.97832 81.754 3.00522 81.8069 3.03047 81.8575C3.30772 82.4129 3.4727 82.818 3.4727 83.2762C3.4727 84.0412 3.56392 84.7648 3.6555 85.4274L3.69054 85.679C3.77155 86.2584 3.84529 86.7858 3.87363 87.3242C3.98461 89.4329 4.48788 90.9489 5.77507 91.8142C6.38619 92.2249 7.09235 92.429 7.82685 92.5374C8.558 92.6452 9.38302 92.6666 10.2661 92.6666C11.383 92.6666 12.533 92.5659 13.6445 92.4686H13.6446H13.6447L13.645 92.4685L13.708 92.463C14.8556 92.3625 15.9673 92.2671 17.0583 92.2671C17.5291 92.2671 18.0603 92.2364 18.5836 92.2063L18.5839 92.2063L18.8477 92.1912C19.4714 92.1562 20.0924 92.1274 20.6877 92.1426C21.9376 92.1745 22.7921 92.3998 23.2544 92.862C24.354 93.9617 25.7772 94.354 26.9042 94.6646L26.9884 94.6879C28.2234 95.0288 29.0984 95.2952 29.7159 95.9491C29.9821 96.231 30.1886 96.6557 30.3214 97.2531C30.4539 97.8489 30.4991 98.5524 30.4912 99.3239C30.4834 100.093 30.4239 100.887 30.3634 101.667L30.3554 101.77C30.2988 102.497 30.242 103.228 30.242 103.853C30.242 105.767 31.5873 107.011 32.5327 107.886L32.5607 107.912L32.6311 107.977C33.1223 108.431 33.5211 108.799 33.8165 109.189C34.1088 109.574 34.2374 109.902 34.2374 110.245C34.2374 111.006 34.3741 111.746 34.7264 112.412C35.0833 113.087 35.6297 113.627 36.3499 114.027C36.6264 114.181 36.9018 114.497 37.1642 115.004C37.4221 115.502 37.6155 116.081 37.7887 116.643C38.1121 117.695 38.1465 119.128 38.0742 120.72C38.0481 121.294 38.0064 121.904 37.9651 122.51L37.965 122.511C37.8988 123.481 37.8333 124.44 37.8333 125.228L37.8334 125.243L37.8337 125.256C37.8337 125.388 37.834 125.519 37.8342 125.647C37.8377 127.478 37.8406 128.996 37.2096 130.416C36.7882 131.364 36.5644 132.552 36.5369 133.703C36.5095 134.849 36.6743 136.067 37.1251 137.053C37.3772 137.604 37.4712 138.263 37.4862 139.044C37.4936 139.432 37.4817 139.83 37.4667 140.249L37.4615 140.392C37.4482 140.759 37.4341 141.144 37.4341 141.521C37.4341 143.097 37.558 144.689 37.6763 146.208L37.6763 146.208C37.7364 146.98 37.795 147.734 37.8352 148.457C37.9093 149.791 38.3883 150.785 39.1854 151.488C39.9417 152.155 40.8945 152.478 41.7578 152.686C42.1965 152.791 42.6445 152.874 43.062 152.95L43.1251 152.961L43.1253 152.961L43.1257 152.961L43.1264 152.962L43.1276 152.962C43.5293 153.035 43.9007 153.103 44.2534 153.184C45.0179 153.359 45.5276 153.565 45.8448 153.851C47.4314 155.278 47.4281 156.987 47.4232 159.547C47.423 159.691 47.4227 159.838 47.4227 159.988C47.4227 160.913 47.6435 161.742 47.8326 162.452L47.8558 162.539C48.0569 163.296 48.2218 163.951 48.2218 164.694C48.2218 165.519 48.4105 166.521 48.6635 167.448C48.919 168.382 49.2621 169.319 49.6148 170.024C50.027 170.849 50.7557 171.101 51.1279 171.23L51.1633 171.242C51.3748 171.316 51.4473 171.345 51.4968 171.376C51.5017 171.379 51.504 171.38 51.505 171.38C51.5044 171.38 51.5035 171.38 51.5043 171.382C51.7473 171.929 51.7645 172.241 51.8037 172.953L51.8104 173.076L51.8194 173.232C51.8559 173.853 52.144 174.342 52.4285 174.706C52.6574 174.998 52.9457 175.283 53.1845 175.518L53.2437 175.577L53.3149 175.647C53.9062 176.237 54.1982 176.629 54.2155 177.115C54.2276 177.452 54.2588 177.857 54.2906 178.269L54.2992 178.381C54.3346 178.842 54.3703 179.324 54.3885 179.799C54.4271 180.808 54.3727 181.575 54.2045 181.975C54.1856 182.019 54.1413 182.098 53.9232 182.178C53.6844 182.265 53.3333 182.315 52.8691 182.321C52.4143 182.327 51.9236 182.292 51.4257 182.25L51.2509 182.235C50.8295 182.199 50.3861 182.162 50.0209 182.162C48.9238 182.162 47.978 182.71 47.254 183.234C46.8813 183.504 46.5267 183.799 46.2122 184.06L46.1998 184.071L46.1995 184.071L46.1993 184.071L46.1985 184.072C45.8786 184.338 45.6067 184.564 45.3524 184.747C45.0054 184.997 44.7476 185.398 44.5636 185.73C44.3589 186.099 44.1588 186.546 43.9698 187.029C43.5908 187.998 43.2259 189.185 42.9382 190.343C42.6517 191.496 42.4312 192.66 42.3565 193.578C42.3358 193.832 42.3245 194.087 42.33 194.329C42.3177 194.413 42.3085 194.5 42.3028 194.588C42.027 194.934 41.7401 195.314 41.49 195.692C41.1624 196.186 40.796 196.824 40.7092 197.431C40.6049 198.161 40.6562 199.016 40.6934 199.636L40.7009 199.761C40.7833 201.162 41.1989 202.682 41.6337 204.105C41.7469 204.476 41.8611 204.839 41.9729 205.195C42.305 206.251 42.6168 207.243 42.823 208.171C42.9713 208.839 43.0402 209.49 43.0906 210.157C43.1041 210.336 43.1165 210.521 43.1292 210.71L43.1292 210.71C43.1619 211.197 43.196 211.704 43.2547 212.19C43.4256 213.603 43.8235 215.047 45.0967 216.461C46.9226 218.49 47.6203 221.689 47.6203 224.458V224.467V224.475V224.483V224.492V224.5V224.509V224.517V224.526V224.535V224.544V224.552V224.561V224.57V224.579V224.589V224.598V224.607V224.616V224.625V224.635V224.644V224.654V224.663V224.673V224.683V224.692V224.702V224.712V224.722V224.732V224.742V224.752V224.762V224.772V224.782V224.792V224.803V224.813V224.823V224.834V224.844V224.855V224.865V224.876V224.887V224.898V224.908V224.919V224.93V224.941V224.952V224.963V224.974V224.985V224.996V225.007V225.019V225.03V225.041V225.052V225.064V225.075V225.087V225.098V225.11V225.121V225.133V225.145V225.156V225.168V225.18V225.192V225.204V225.216V225.228V225.24V225.252V225.264V225.276V225.288V225.3V225.312V225.324V225.337V225.349V225.361V225.373V225.386V225.398V225.411V225.423V225.436V225.448V225.461V225.473V225.486V225.499V225.511V225.524V225.537V225.549V225.562V225.575V225.588V225.601V225.613V225.626V225.639V225.652V225.665V225.678V225.691V225.704V225.717V225.73V225.744V225.757V225.77V225.783V225.796V225.809V225.823V225.836V225.849V225.862V225.876V225.889V225.902V225.916V225.929V225.942V225.956V225.969V225.982V225.996V226.009V226.023V226.036V226.05V226.063V226.077V226.09V226.104V226.117V226.131V226.144V226.158V226.172V226.185V226.199V226.212V226.226V226.24V226.253V226.267V226.28V226.294V226.308V226.321V226.335V226.349V226.362V226.376V226.39V226.403V226.417V226.431V226.444V226.458V226.472V226.485V226.499V226.513V226.526V226.54V226.554V226.567V226.581V226.595V226.608V226.622V226.636V226.649V226.663V226.676V226.69V226.704V226.717V226.731V226.745V226.758V226.772V226.785V226.799V226.812V226.826V226.84V226.853V226.867V226.88V226.894V226.907V226.921V226.934V226.948V226.961V226.974V226.988V227.001V227.015V227.028V227.041V227.055V227.068V227.081V227.095V227.108V227.121V227.134V227.148V227.161V227.174V227.187V227.2V227.213V227.227V227.24V227.253V227.266V227.279V227.292V227.305V227.318V227.331V227.344V227.356V227.369V227.382V227.395V227.408V227.421V227.433V227.446V227.459V227.471V227.484V227.496V227.509V227.522V227.534V227.547V227.559V227.571V227.584V227.596V227.608V227.621V227.633V227.645V227.657V227.67V227.682V227.694V227.706V227.718V227.73V227.742V227.754V227.766V227.777V227.789V227.801V227.813V227.824V227.836V227.848V227.859V227.871V227.882V227.894V227.905V227.916V227.928V227.939V227.95V227.962V227.973V227.984V227.995V228.006V228.017V228.028V228.039V228.049V228.06V228.071V228.082V228.092V228.103V228.114V228.124V228.134V228.145V228.155V228.166V228.176V228.186V228.196V228.206V228.216V228.226V228.236V228.246V228.256V228.266V228.276V228.285V228.295V228.304V228.314V228.323V228.333V228.342V228.351V228.361V228.37V228.379V228.388V228.397V228.406V228.415V228.424V228.432V228.441V228.45V228.458V228.467V228.475V228.484V228.492V228.5V228.508V228.516V228.525V228.533V228.54V228.548V228.556V228.564V228.572V228.579V228.587V228.594V228.602V228.609V228.616V228.623V228.63V228.637V228.644V228.651V228.658V228.658V228.665V228.667V228.672V228.675V228.678V228.682V228.685V228.69V228.691V228.698V228.698V228.704V228.705V228.71V228.713V228.716V228.72V228.723V228.727V228.729V228.734V228.734V228.74V228.741V228.746V228.748V228.752V228.754V228.758V228.761V228.763V228.767V228.769V228.774V228.774V228.779V228.78V228.785V228.786V228.79V228.792V228.795V228.797V228.8V228.803V228.805V228.809V228.81V228.814V228.814V228.819V228.819V228.824V228.824V228.828V228.83V228.833V228.834V228.837V228.839V228.841V228.844V228.845V228.849V228.849V228.853V228.853V228.857V228.861V228.862V228.865V228.866V228.869V228.87V228.872V228.874V228.876V228.877V228.879V228.881V228.882V228.885V228.886V228.888V228.889V228.891V228.892V228.895V228.895V228.898V228.9V228.901V228.903V228.904V228.906V228.906V228.908V228.909V228.911V228.911V228.913V228.914V228.915V228.916V228.917V228.918V228.919V228.921V228.921V228.923V228.923V228.924V228.925V228.926V228.927V228.928V228.928V228.929V228.93V228.931V228.931V228.932V228.932V228.933V228.934V228.935V228.936V228.937V228.937V228.938V228.939V228.939V228.94V228.94V228.94H48.0028C48.0275 229.077 48.0533 229.219 48.0806 229.364C48.1177 229.561 48.1569 229.759 48.1965 229.931C48.2307 230.079 48.2822 230.286 48.3572 230.455C48.9615 231.814 49.3118 233.044 49.7293 234.509L49.8179 234.819C50.0918 235.778 50.9082 236.302 51.4346 236.601C51.5778 236.683 51.7833 236.791 51.9548 236.882L51.9571 236.883C52.0617 236.938 52.1534 236.987 52.2103 237.018C52.4002 237.123 52.5039 237.193 52.5578 237.237C52.5676 237.265 52.5974 237.354 52.6171 237.549C52.6483 237.856 52.6401 238.244 52.6224 238.721L52.6167 238.871L52.6167 238.872C52.6008 239.284 52.5829 239.75 52.6013 240.179C52.6212 240.64 52.6858 241.213 52.9421 241.697C53.4699 242.694 53.5824 243.113 53.8216 244.006C53.8914 244.266 53.9721 244.567 54.0771 244.935C54.9419 247.962 56.0108 250.181 57.4379 252.877C58.0861 254.101 58.5309 255.41 58.9749 256.804C59.0266 256.966 59.0783 257.13 59.1304 257.295C59.3349 257.941 59.5452 258.606 59.7797 259.274C59.5232 259.586 59.4707 259.956 59.4808 260.217C59.4928 260.525 59.5889 260.811 59.6829 261.028C59.8746 261.472 60.1832 261.915 60.4718 262.227C60.6095 262.377 60.7973 262.557 61.0142 262.682C61.1146 262.74 61.3142 262.842 61.5745 262.857C61.8325 262.872 62.1294 262.795 62.364 262.583C62.7393 263.187 62.975 263.902 63.2598 264.767C63.2954 264.875 63.3318 264.985 63.3693 265.098C63.397 265.181 63.4254 265.266 63.4545 265.352C63.8739 266.591 64.4421 268.022 65.7722 269.114C65.7842 269.132 65.8005 269.156 65.8209 269.189C65.8824 269.289 65.9561 269.425 66.0295 269.574C66.1025 269.722 66.1676 269.869 66.2142 269.988L66.2288 270.026L66.2374 270.05C66.2423 270.063 66.2467 270.075 66.2506 270.087C66.2555 270.101 66.2596 270.113 66.2628 270.124L66.2662 270.135C66.3293 270.58 66.543 271.001 66.9641 271.268C67.333 271.502 67.7312 271.53 67.9652 271.532C68.1319 271.534 68.3426 271.52 68.4861 271.51C68.5336 271.507 68.5738 271.504 68.6026 271.503C68.7408 271.496 68.7985 271.501 68.8123 271.502L68.8157 271.502L68.8131 271.502C68.8569 271.514 68.9732 271.569 69.1701 271.769C69.3621 271.964 69.5615 272.223 69.7954 272.545C69.8381 272.604 69.8824 272.665 69.9281 272.729L69.9284 272.729C70.1154 272.989 70.3243 273.279 70.5348 273.535C70.7947 273.851 71.1273 274.207 71.5386 274.448C71.7572 274.577 72.0042 274.759 72.2998 274.992C72.3846 275.058 72.4753 275.131 72.5697 275.206L72.5702 275.206L72.5732 275.209C72.7856 275.378 73.0167 275.562 73.2412 275.73C73.8717 276.201 74.7353 276.775 75.7136 276.833C76.6442 276.887 77.4094 276.725 78.0525 276.577L78.1916 276.545C78.785 276.408 79.2423 276.302 79.7653 276.302C80.6737 276.302 81.5494 276.172 82.2976 276.061L82.3287 276.056C83.1213 275.939 83.733 275.852 84.252 275.876C84.7384 275.9 85.0291 276.017 85.2449 276.226C85.4818 276.455 85.7599 276.92 85.9392 277.906C86.0009 278.246 86.01 278.601 86.0056 279.009L86.0047 279.083L86.0021 279.237C85.9964 279.57 85.9897 279.955 86.0187 280.316C86.0564 280.784 86.1574 281.305 86.4386 281.809C86.7255 282.323 87.1605 282.75 87.7579 283.091C88.677 283.617 89.9849 284.439 90.7054 285.015C91.242 285.445 91.9296 285.798 92.6055 286.107C93.0169 286.294 93.4755 286.487 93.9225 286.675L93.9235 286.676L93.9248 286.676C94.1997 286.792 94.4702 286.906 94.7226 287.016C95.4218 287.319 96.0498 287.618 96.5572 287.94C97.0738 288.268 97.378 288.567 97.5249 288.831C98.0724 289.817 98.8233 290.754 99.8928 291.041C101.057 291.355 102.15 290.801 103.099 289.851C103.902 289.049 104.462 288.422 104.743 287.609C104.991 286.889 104.99 286.084 104.989 285.088L104.989 284.885C104.989 284.231 104.928 283.436 104.862 282.622L104.84 282.348C104.779 281.602 104.715 280.829 104.68 280.065C104.641 279.205 104.64 278.39 104.713 277.677C104.787 276.952 104.931 276.412 105.13 276.054C108.514 269.961 108.541 263.626 107.125 257.25C106.768 255.644 106.897 254.733 107.247 253.869C107.437 253.4 107.701 252.923 108.051 252.325C108.112 252.219 108.176 252.11 108.243 251.997C108.544 251.485 108.889 250.897 109.25 250.215C110.846 247.202 110.846 245.061 110.846 241.761V241.761C110.846 241.482 110.731 241.229 110.546 241.047C111.63 238.802 112.05 235.725 111.909 233.188C111.855 232.204 111.553 231.258 111.308 230.491C111.23 230.246 111.157 230.019 111.101 229.816C110.851 228.917 110.773 228.162 111.174 227.26C111.918 225.587 112.855 224 113.843 222.347L113.985 222.11L113.985 222.109C114.921 220.545 115.896 218.917 116.724 217.167C116.93 216.732 117.16 216.159 117.388 215.591L117.388 215.591C117.537 215.219 117.685 214.85 117.824 214.524C118.223 213.592 118.597 212.892 118.953 212.536C119.009 212.48 119.056 212.439 119.094 212.408C119.107 212.428 119.122 212.45 119.137 212.476C119.224 212.624 119.314 212.827 119.403 213.082C119.579 213.583 119.713 214.162 119.837 214.699L119.837 214.7L119.847 214.743C119.907 215.003 119.968 215.269 120.03 215.482C120.061 215.589 120.1 215.709 120.148 215.823C120.181 215.9 120.277 216.123 120.48 216.303C120.818 216.603 121.219 216.613 121.385 216.609C121.591 216.604 121.793 216.562 121.957 216.519C122.291 216.432 122.668 216.287 123.002 216.151C123.174 216.081 123.346 216.008 123.506 215.941C123.601 215.9 123.69 215.862 123.776 215.826C123.837 215.801 123.896 215.776 123.952 215.753C124.089 215.697 124.199 215.654 124.282 215.625C124.331 215.609 124.357 215.601 124.366 215.599C124.935 215.521 125.3 215.133 125.493 214.882C125.706 214.604 125.875 214.274 126.005 214C126.072 213.859 126.136 213.716 126.194 213.587L126.197 213.58C126.257 213.445 126.311 213.324 126.364 213.213C126.417 213.101 126.463 213.013 126.502 212.945C126.544 212.873 126.566 212.848 126.565 212.848C127.507 211.788 128.031 210.404 128.487 209.199L128.549 209.036C129.048 207.719 129.505 206.576 130.292 205.69C133.306 202.3 133.262 198.539 133.217 194.707V194.706V194.706V194.705V194.704V194.703C133.212 194.241 133.207 193.777 133.207 193.313C133.207 192.252 133.78 191.09 134.569 189.613L134.679 189.409C135.388 188.087 136.224 186.526 136.395 184.9C136.411 184.753 136.547 184.331 136.864 183.669C137.16 183.052 137.559 182.336 137.991 181.656C138.425 180.971 138.875 180.351 139.269 179.909C139.467 179.687 139.63 179.534 139.75 179.444C139.777 179.423 139.799 179.409 139.815 179.398C142.562 179.2 144.417 177.487 145.972 175.813C146.266 175.497 146.548 175.183 146.824 174.877L146.829 174.872L146.83 174.871C148.107 173.455 149.254 172.184 150.755 171.433C154.355 169.633 157.91 166.691 159.622 162.841C160.146 161.662 160.106 160.33 160.074 159.252L160.07 159.112C160.036 157.908 160.033 156.961 160.391 156.156C161.236 154.254 162.449 152.008 163.533 150.164C163.672 149.929 163.807 149.703 163.938 149.486L163.941 149.481C164.411 148.699 164.823 148.014 165.112 147.301C165.507 146.325 165.683 145.301 165.683 143.801C165.683 142.986 165.378 142.297 164.831 141.817C164.308 141.358 163.648 141.162 163.03 141.128C161.841 141.062 160.414 141.586 159.694 142.738C159.656 142.798 159.513 142.946 159.171 143.105C158.85 143.254 158.439 143.372 158.003 143.434C157.566 143.495 157.145 143.494 156.804 143.436C156.445 143.374 156.276 143.268 156.221 143.212C156.164 143.156 156.046 142.963 155.972 142.488C155.902 142.041 155.892 141.483 155.916 140.86C155.935 140.35 155.975 139.834 156.015 139.328C156.024 139.218 156.032 139.108 156.041 138.998C156.085 138.418 156.125 137.82 156.098 137.353C156.081 137.075 155.972 136.853 155.901 136.728C155.821 136.588 155.724 136.459 155.633 136.348C155.45 136.127 155.216 135.891 154.984 135.666C154.793 135.482 154.601 135.303 154.412 135.127L154.412 135.127C154.103 134.839 153.8 134.557 153.517 134.265C153.491 134.239 153.466 134.213 153.442 134.188C153.957 134.267 154.362 134.478 154.772 134.783C155.053 134.993 155.327 135.241 155.651 135.538L155.717 135.598C156.014 135.871 156.35 136.179 156.723 136.478C157.253 136.902 157.827 137.089 158.338 137.192C158.59 137.242 158.838 137.274 159.059 137.3L159.219 137.319C159.383 137.338 159.53 137.355 159.68 137.377C160.063 137.434 160.343 137.511 160.575 137.646C160.791 137.771 161.028 137.983 161.255 138.412C161.958 139.74 163.068 140.276 164.206 140.466C164.976 140.595 165.859 140.573 166.625 140.554H166.625H166.625H166.625H166.626H166.626C166.881 140.548 167.124 140.542 167.344 140.542C168.129 140.542 168.829 140.422 169.392 140.085C169.999 139.722 170.326 139.182 170.479 138.603C170.621 138.068 170.619 137.483 170.593 136.95C170.579 136.676 170.557 136.389 170.534 136.106L170.534 136.105L170.534 136.104L170.534 136.101C170.512 135.813 170.489 135.525 170.473 135.227C170.355 133.103 169.536 130.44 167.933 128.837C166.508 127.412 165.383 125.82 164.279 124.149C164.069 123.83 163.858 123.508 163.646 123.182L163.641 123.174C162.756 121.817 161.843 120.416 160.79 119.1C160.634 118.905 160.517 118.629 160.431 118.222C160.353 117.852 160.315 117.45 160.269 116.974L160.251 116.787C160.153 115.772 160.012 114.35 159.021 113.3C158.846 113.115 158.598 112.939 158.393 112.799C158.177 112.653 157.917 112.488 157.652 112.319L157.651 112.319L157.616 112.297C157.044 111.934 156.419 111.535 155.883 111.118C155.316 110.679 154.988 110.323 154.874 110.084C154.865 110.066 154.859 110.052 154.855 110.041C154.869 110.025 154.892 110.003 154.926 109.976C155.826 109.255 156.305 108.144 156.573 107.017C156.844 105.871 156.931 104.564 156.936 103.283C156.941 101.995 156.863 100.688 156.785 99.5352C156.774 99.3678 156.763 99.2045 156.752 99.0455V99.0453V99.045V99.0449V99.0447V99.0445C156.687 98.0866 156.632 97.2839 156.632 96.684C156.632 95.4255 156.495 94.2779 156.364 93.1842V93.1841L156.359 93.1356C156.225 92.0154 156.099 90.9449 156.099 89.7629C156.099 88.4341 155.804 87.1621 155.542 86.0309L155.541 86.0272C155.269 84.8546 155.035 83.8387 155.035 82.8418C155.035 82.7776 155.042 82.6635 155.055 82.4784L155.055 82.4778L155.055 82.4741L155.055 82.4736C155.06 82.4105 155.065 82.3391 155.07 82.2587C155.089 81.9717 155.109 81.6146 155.11 81.2611C155.11 80.9208 155.092 80.5206 155.01 80.1678C154.969 79.9919 154.9 79.7713 154.769 79.5635C154.634 79.3481 154.395 79.0907 154.014 78.9817C153.481 78.8294 152.981 78.7392 152.646 78.6787L152.645 78.6786L152.643 78.6782C152.512 78.6546 152.406 78.6355 152.334 78.619C152.038 78.5516 151.731 78.4475 151.129 78.0464C150.496 77.6244 149.503 76.9386 148.591 76.2095C148.134 75.8448 147.711 75.479 147.367 75.1381C147.012 74.7852 146.792 74.5082 146.693 74.3226C146.49 73.9459 146.375 73.4625 146.275 72.8407C146.255 72.7153 146.235 72.5801 146.214 72.4388C146.142 71.9477 146.058 71.3813 145.916 70.884C145.796 70.4643 145.533 70.1356 145.318 69.9077C145.093 69.6696 144.829 69.4498 144.605 69.267C144.553 69.2252 144.504 69.1854 144.457 69.1471L144.453 69.1441L144.448 69.1399L144.443 69.136C144.271 68.9974 144.124 68.8787 143.99 68.7582C143.811 68.5967 143.741 68.5063 143.723 68.4739C143.151 67.4736 143.071 66.617 143.066 65.6027C143.065 65.4551 143.066 65.3016 143.067 65.1426C143.074 64.2141 143.082 63.0952 142.722 61.8333C142.651 61.5852 142.511 61.3418 142.396 61.1578C142.267 60.9525 142.107 60.7267 141.933 60.4952C141.583 60.031 141.142 59.4981 140.697 58.982C139.808 57.9515 138.86 56.9356 138.504 56.5798C137.864 55.9397 137.038 55.7152 136.296 55.6422C135.56 55.5698 134.77 55.6351 134.102 55.6917L134.077 55.6938C133.372 55.7533 132.807 55.8011 132.343 55.761C131.872 55.7203 131.739 55.6062 131.694 55.549C130.281 53.7315 130.331 51.648 130.709 49.1986C130.769 48.809 130.839 48.4002 130.911 47.9822L130.911 47.9812L130.911 47.9804L130.911 47.9798C131.055 47.1459 131.204 46.2756 131.292 45.4487C131.427 44.1744 131.439 42.8423 131.068 41.5432C130.591 39.8747 129.501 39.225 128.686 38.7542C127.89 38.2945 127.485 38.0535 127.282 37.3432C126.817 35.7147 126.817 33.9786 126.818 31.9347V31.9345L126.818 31.732C126.818 30.4415 126.911 29.1352 127.011 27.7873L127.021 27.6409V27.6408V27.6406V27.6405L127.021 27.6403C127.117 26.3503 127.215 25.0215 127.228 23.6933C127.255 20.9232 126.913 18.0681 125.361 15.2746C125.361 15.2751 125.361 15.275 125.361 15.2744C125.359 15.2698 125.344 15.2384 125.323 15.1665C125.3 15.0875 125.276 14.9821 125.252 14.8467C125.204 14.5739 125.165 14.2291 125.13 13.8203C125.104 13.5082 125.078 13.1239 125.05 12.7157L125.05 12.7147C125.012 12.1594 124.971 11.56 124.922 11.0379C124.833 10.0837 124.694 9.06861 124.409 8.27188C124.15 7.54781 123.577 6.50812 122.357 6.50812C120.765 6.50812 118.555 6.83139 116.568 7.55915C114.632 8.26819 112.626 9.46628 111.872 11.4048C111.662 11.9443 111.53 12.3588 111.435 12.6557L111.406 12.7481C111.387 12.8068 111.371 12.8559 111.357 12.8968C111.264 12.8986 111.146 12.8982 110.986 12.8976C110.889 12.8973 110.776 12.8968 110.645 12.8968H110.635H110.625H110.615H110.605H110.595H110.586H110.576H110.566H110.556H110.546H110.537H110.527H110.517H110.507H110.497H110.487H110.478H110.468H110.458H110.448H110.438H110.429H110.419H110.409H110.399H110.389H110.379H110.37H110.36H110.35H110.34H110.33H110.321H110.311H110.301H110.291H110.281H110.271H110.262H110.252H110.242H110.232H110.222H110.212H110.203H110.193H110.183H110.173H110.163H110.154H110.144H110.134H110.124H110.114H110.104H110.095H110.085H110.075H110.065H110.055H110.046H110.036H110.026H110.016H110.006H109.996H109.987H109.977H109.967H109.957H109.947H109.938H109.928H109.918H109.908H109.898H109.888H109.879H109.869H109.859H109.849H109.839H109.829H109.82H109.81H109.8H109.79H109.78H109.771H109.761H109.751H109.741H109.731H109.721H109.712H109.702H109.692H109.682H109.672H109.663H109.653H109.643H109.633H109.623H109.613H109.604H109.594H109.584H109.574H109.564H109.554H109.545H109.535H109.525H109.515H109.505H109.496H109.486H109.476H109.466H109.456H109.446H109.437H109.427H109.417H109.407H109.397H109.388H109.378H109.368H109.358H109.348H109.338H109.329H109.319H109.309H109.299H109.289H109.28H109.27H109.26H109.25H109.24H109.23H109.221H109.211H109.201H109.191H109.181H109.171H109.162H109.152H109.142H109.132H109.122H109.113H109.103H109.093H109.083H109.073H109.063H109.054H109.044H109.034H109.024H109.014H109.005H108.995H108.985H108.975H108.965H108.955H108.946H108.936H108.926H108.916H108.906H108.897H108.887H108.877H108.867H108.857H108.847H108.838H108.828H108.818H108.808H108.798H108.788H108.779H108.769H108.759H108.749H108.739H108.73H108.72H108.71H108.7H108.69H108.68H108.671H108.661H108.651H108.641H108.631H108.622H108.612H108.602H108.592H108.582H108.572H108.563H108.553H108.543H108.533H108.523H108.514H108.504H108.494H108.484H108.474H108.464H108.455H108.445H108.435H108.425H108.415H108.405H108.396H108.386H108.376H108.366H108.356H108.347H108.337H108.327H108.317H108.307H108.297H108.288H108.278H108.268H108.258H108.248H108.239H108.229H108.219H108.209H108.199H108.189H108.18H108.17H108.16H108.15H108.14H108.131H108.121H108.111H108.101H108.091H108.081H108.072H108.062H108.052H108.042H108.032H108.022H108.013H108.003H107.993H107.983H107.973H107.964H107.954H107.944H107.934H107.924H107.914H107.905H107.895H107.885H107.875H107.865H107.856H107.846H107.836H107.826H107.816H107.806H107.797H107.787H107.777H107.767H107.757H107.748H107.738H107.728H107.718H107.708H107.698H107.689H107.679H107.669H107.659H107.649H107.639H107.63H107.62H107.61H107.6H107.59H107.581H107.571H107.561H107.551H107.541H107.531H107.522H107.512H107.502H107.492H107.482H107.473H107.463H107.453H107.443H107.433H107.423H107.414H107.404H107.394H107.384H107.374H107.365H107.355H107.345H107.335H107.325H107.315H107.306H107.296H107.286H107.276H107.266H107.256H107.247H107.237H107.227H107.217H107.207H107.198H107.188H107.178H107.168H107.158H107.148H107.139H107.129H107.119H107.109H107.099H107.09H107.08H107.07H107.06H107.05H107.04H107.031H107.021H107.011H107.001H106.991H106.981H106.972H106.962H106.952H106.942H106.932H106.923H106.913H106.903H106.893H106.883H106.873H106.864H106.854H106.844H106.834H106.824H106.815H106.805H106.795H106.785H106.775H106.765H106.756H106.746H106.736H106.726H106.716H106.707H106.697H106.687H106.677H106.667H106.657H106.648H106.638H106.628H106.618H106.608H106.598H106.589H106.579H106.569H106.559H106.549H106.54H106.53H106.52H106.51H106.5H106.49H106.481H106.471H106.461H106.451H106.441H106.432H106.422H106.412H106.402H106.392H106.382H106.373H106.363H106.353H106.343H106.333H106.324H106.314H106.304H106.294H106.284H106.274H106.265H106.255H106.245H106.235H106.225H106.215H106.206H106.196H106.186H106.176H106.166H106.157H106.147H106.137H106.127H106.117H106.107H106.098H106.088H106.078H106.068H106.058H106.049H106.039H106.029H106.019H106.009H105.999H105.99H105.98H105.97H105.96H105.95H105.941H105.931H105.921H105.911H105.901H105.891H105.882H105.872H105.862H105.852H105.842H105.832H105.823H105.813H105.803H105.793H105.783H105.774H105.764H105.754H105.744H105.734H105.724H105.715H105.705H105.695H105.685H105.675H105.666H105.656H105.646H105.636H105.626H105.616C105.203 12.8968 105.04 12.8345 104.989 12.8052C104.983 12.788 104.972 12.7513 104.964 12.685C104.948 12.5623 104.947 12.399 104.959 12.1634C104.963 12.0896 104.969 12.0063 104.975 11.9156V11.9155C105.002 11.5036 105.04 10.9377 104.968 10.4071C104.871 9.69179 104.572 8.92904 103.816 8.32444C103.775 8.29146 103.701 8.21818 103.579 8.07405C103.521 8.00637 103.462 7.93357 103.395 7.85131L103.391 7.84657C103.377 7.75045 103.361 7.65376 103.339 7.55739C103.097 6.46636 102.541 4.83074 100.746 4.43195C100.372 4.34886 99.8242 4.32291 99.3321 4.30029C99.2068 4.16454 99.0727 4.02913 98.9319 3.90464C98.9316 3.88733 98.9317 3.86707 98.9323 3.84358C98.9344 3.7588 98.9406 3.67943 98.9487 3.57601L98.9487 3.57585C98.952 3.5351 98.9555 3.4906 98.9591 3.44058C98.9696 3.2967 98.9842 3.07558 98.96 2.8579C98.8773 2.1141 98.3453 1.69636 97.9267 1.48643C97.5118 1.27832 97.0261 1.17323 96.6159 1.10888C96.2252 1.04759 95.8193 1.01181 95.4878 0.982601L95.4076 0.975518C95.016 0.940785 94.8085 0.916732 94.7167 0.892255C93.9529 0.688584 93.1338 0.6708 92.4053 0.690524C92.0479 0.700201 91.738 0.716658 91.4477 0.732069C91.2756 0.741207 91.1104 0.749977 90.9464 0.756749ZM59.7358 15.4649C59.7359 15.465 59.7356 15.4668 59.7347 15.47C59.7353 15.4665 59.7357 15.4648 59.7358 15.4649ZM104.975 12.7938C104.972 12.7912 104.97 12.7901 104.97 12.7904C104.969 12.7908 104.973 12.7947 104.982 12.8007C104.979 12.7977 104.977 12.7955 104.975 12.7938ZM154.831 110.071C154.831 110.071 154.832 110.07 154.834 110.067C154.832 110.07 154.831 110.071 154.831 110.071ZM123.865 213.712C123.865 213.711 123.868 213.708 123.874 213.703C123.868 213.709 123.865 213.712 123.865 213.712ZM122.275 8.48526C122.275 8.48356 122.283 8.48631 122.296 8.49859C122.281 8.4931 122.275 8.48696 122.275 8.48526ZM95.9205 3.72018L95.9222 3.72269C95.9211 3.7205 95.9203 3.71946 95.9202 3.71949C95.9202 3.7195 95.9203 3.71973 95.9205 3.72018Z" fill="#FF5000"/>
</svg>
